<?xml version="1.0" standalone="no"?>
<!DOCTYPE svg PUBLIC "-//W3C//DTD SVG 1.1//EN" "http://www.w3.org/Graphics/SVG/1.1/DTD/svg11.dtd" >
<svg xmlns="http://www.w3.org/2000/svg" xmlns:xlink="http://www.w3.org/1999/xlink" version="1.1">
<metadata>
Created by FontForge 20161003 at Mon May 28 07:19:24 2018
 By www-data
Copyright (c) 2014 ( Jozoor Fonts ) All Rights Reserved
</metadata>
<defs>
<font id="JFFlatregular" horiz-adv-x="0" >
  <font-face 
    font-family="JFFlatregular"
    font-weight="400"
    font-stretch="normal"
    units-per-em="1000"
    panose-1="2 0 5 0 0 0 0 0 0 0"
    ascent="800"
    descent="-200"
    x-height="497"
    cap-height="722"
    bbox="-29 -298 1200 1081"
    underline-thickness="73"
    underline-position="-141"
    unicode-range="U+0020-FEFC"
  />
<missing-glyph horiz-adv-x="500" 
d="M49 0v700h402v-700h-402zM73 24h354v652h-354v-652zM159 561q39 35 83 35q43 0 71 -22.5t28 -62.5q0 -23 -11 -48q-8 -18 -48.5 -72t-42.5 -56q-17 -24 -17 -48q0 -22 11 -65h-15q-17 49 -17 72q0 40 39 106q40 68 40 106q0 28 -16 44t-44 16t-61 -27v22zM228 196
q5 0 10 -5l28 -29q4 -5 4 -10q0 -4 -5 -11l-27 -30q-7 -7 -10 -7q-5 0 -10 5l-30 35q-3 4 -3 8q0 6 5 11l28 28q7 5 10 5z" />
    <glyph glyph-name="ShaddaDammatan" unicode="&#x651;&#x64c;" arabic-form="isolated" 
d="M128 1015q0 -10 8.5 -18t18.5 -8q11 0 18.5 7.5t7.5 18.5t-7.5 19t-18.5 8t-19 -8t-8 -19zM155 1081q27 0 46.5 -20t19.5 -46q0 -25 -17 -43t-42 -21v-1h-119q-13 0 -17 12l-25 55q-1 2 -1 4q0 5 6 8l19 9h4q7 0 8 -5l20 -44h38q-5 15 -5 26q0 26 19.5 46t45.5 20z
M159 821q7 0 13 5.5t6 13.5v54q0 10 9 10h21q9 0 9 -10v-54q0 -24 -17 -41.5t-41 -17.5q-22 0 -40 15q-17 -15 -39 -15q-24 0 -41.5 17.5t-17.5 41.5v54q0 10 9 10h22q9 0 9 -10v-54q0 -19 19 -19q8 0 14 5.5t6 13.5v54q0 10 9 10h21q9 0 9 -10v-54q0 -19 20 -19z" />
    <glyph glyph-name="ShaddaKasratan" unicode="&#x651;&#x64d;" arabic-form="isolated" 
d="M172 821q10 0 10 -10v-20q0 -10 -10 -10h-156q-9 0 -9 10v20q0 10 9 10h156zM172 882q10 0 10 -9v-21q0 -9 -10 -9h-156q-9 0 -9 9v21q0 9 9 9h156zM114 968q0 -7 5.5 -12.5t12.5 -5.5q18 0 18 18v53q0 8 9 8h21q9 0 9 -8v-53q0 -23 -17 -40t-40 -17q-21 0 -38 14
q-16 -14 -37 -14q-23 0 -40 17t-17 40v53q0 8 9 8h21q9 0 9 -8v-53q0 -18 18 -18q7 0 12.5 5.5t5.5 12.5v53q0 8 9 8h20q10 0 10 -8v-53z" />
    <glyph glyph-name="ShaddaFatha" unicode="&#x651;&#x64e;" arabic-form="isolated" 
d="M17 938q-8 0 -8 9v21q0 10 8 10h162q9 0 9 -10v-21q0 -9 -9 -9h-162zM138 821q8 0 13.5 5.5t5.5 13.5v54q0 10 10 10h21q8 0 8 -10v-54q0 -24 -17 -41.5t-41 -17.5q-22 0 -40 15q-16 -15 -39 -15q-24 0 -41.5 17.5t-17.5 41.5v54q0 10 9 10h22q9 0 9 -10v-54
q0 -8 5.5 -13.5t13.5 -5.5t14 5.5t6 13.5v54q0 10 9 10h21q9 0 9 -10v-54q0 -19 20 -19z" />
    <glyph glyph-name="ShaddaDamma" unicode="&#x651;&#x64f;" arabic-form="isolated" 
d="M104 1007q0 -11 8 -19t18 -8t18.5 8t8.5 19t-8 18.5t-19 7.5q-10 0 -18 -7.5t-8 -18.5zM130 1072q27 0 46.5 -19t19.5 -46q0 -25 -17.5 -44t-41.5 -21v-1h-128q-9 0 -9 10v21q0 8 9 8h62q-6 14 -6 27q0 26 19.5 45.5t45.5 19.5zM117 838q0 -7 5.5 -12t12.5 -5q19 0 19 17
v53q0 9 9 9h21q9 0 9 -9v-53q0 -23 -17.5 -40t-40.5 -17q-21 0 -37 15q-15 -15 -37 -15q-23 0 -40.5 17t-17.5 40v53q0 9 9 9h21q9 0 9 -9v-53q0 -17 19 -17q7 0 12.5 5t5.5 12v53q0 9 8 9h21q9 0 9 -9v-53z" />
    <glyph glyph-name="ShaddaKasra" unicode="&#x651;&#x650;" arabic-form="isolated" 
d="M182 820q10 0 10 -9v-20q0 -10 -10 -10h-164q-9 0 -9 10v20q0 9 9 9h164zM120 913q0 -9 6 -14.5t14 -5.5q21 0 21 20v55q0 9 8 9h21q10 0 10 -9v-55q0 -24 -18 -41.5t-42 -17.5q-22 0 -40 15q-17 -15 -40 -15q-24 0 -42 17.5t-18 41.5v55q0 9 9 9h21q10 0 10 -9v-55
q0 -20 20 -20q21 0 21 20v55q0 9 9 9h20q10 0 10 -9v-55z" />
    <glyph glyph-name="Llah" unicode="&#xfedf;&#xfee0;&#xfeea;" horiz-adv-x="1162" arabic-form="isolated" 
d="M714 871q-9 0 -9 9v92q0 9 9 9h21q10 0 10 -9v-92q0 -9 -10 -9h-21zM822 773q0 -24 -17 -41t-41 -17t-39 14q-15 -14 -38 -14q-24 0 -41.5 17t-17.5 41v54q0 9 10 9h21q9 0 9 -9v-54q0 -7 6 -13t13 -6t12.5 5.5t5.5 13.5v54q0 9 9 9h21q10 0 10 -9v-54q0 -19 19 -19
q18 0 18 19v54q0 9 10 9h21q9 0 9 -9v-54zM123 211q0 -57 40 -97.5t97 -40.5h138v213q0 56 -41 97t-97 41q-57 0 -97 -40.5t-40 -97.5v-75zM959 73q52 1 52 54v581q0 14 14 14h46q13 0 13 -14v-581q0 -58 -34 -92.5t-92 -34.5h-116q-73 0 -110 37l-1 1l-1 1q0 -2 -1 -3
l-2 -2q-34 -34 -92 -34h-375q-87 0 -149 62t-62 149v75q0 88 62 150t149 62q88 0 150 -62t62 -150v-213h164q52 1 52 54v502q0 13 14 13h46q14 0 14 -13v-515q0 -24 16.5 -32.5t49.5 -8.5h131z" />
    <glyph glyph-name="LamAlefMaddaIsol" unicode="&#xfedf;&#xfe82;" horiz-adv-x="606" arabic-form="isolated" 
d="M358 73q50 0 73.5 23.5t23.5 73.5v538q0 14 13 14h47q13 0 13 -14v-538q0 -80 -45 -125t-125 -45h-296q-13 0 -13 14v46q0 13 13 13h296zM262 642q13 0 13 -13v-459q0 -14 -13 -14h-47q-13 0 -13 14v459q0 13 13 13h47zM89 711q0 2 2 6l5 9q24 40 71 43h4q25 0 78 -14
q46 -11 61 -11h3q23 0 35 15l6 8q4 4 7 4q4 0 7 -3l17 -13q4 -3 4 -6q0 -4 -3 -7l-7 -9q-23 -29 -65 -29h-2q-26 0 -74 13q-45 12 -65 12h-2q-28 -2 -41 -23l-5 -9q-2 -4 -6 -5h-1q-4 0 -6 1l-18 11q-5 3 -5 7z" />
    <glyph glyph-name="LamAlefMaddaFinl" unicode="&#xfee0;&#xfe82;" horiz-adv-x="628" arabic-form="final" 
d="M528 128q0 -27 19.5 -41t49.5 -14h46v-73h-34q-65 0 -105 40q-7 7 -12 14q-46 -54 -134 -54h-296q-13 0 -13 13v47q0 13 13 13h296q50 0 73.5 23.5t23.5 73.5v538q0 14 13 14h47q13 0 13 -14v-580zM262 642q13 0 13 -14v-459q0 -13 -13 -13h-47q-13 0 -13 13v459
q0 14 13 14h47zM88 711q0 2 2 6l6 9q24 40 71 43h4q27 0 78 -14q44 -12 61 -12h2q24 0 36 15l7 9q1 3 6 3h1q2 0 6 -2l16 -13q5 -3 5 -7q0 -3 -3 -6l-7 -9q-24 -30 -66 -30q-22 0 -75 14q-47 12 -65 12h-2q-28 -2 -41 -23l-5 -9q-1 -3 -6 -5h-1q-4 0 -6 1l-18 11q-6 3 -6 7z
" />
    <glyph glyph-name="LamAlefHamzaAboveIsol" unicode="&#xfedf;&#xfe84;" horiz-adv-x="606" arabic-form="isolated" 
d="M358 73q50 0 73.5 23.5t23.5 73.5v538q0 14 13 14h48q12 0 12 -14v-538q0 -80 -45 -125t-125 -45h-296q-13 0 -13 14v46q0 13 13 13h296zM262 642q13 0 13 -13v-459q0 -14 -13 -14h-47q-13 0 -13 14v459q0 13 13 13h47zM256 839q-14 0 -24 -10.5t-10 -24.5v-58h102
q9 0 9 -10v-21q0 -9 -9 -9h-171q-8 0 -8 9v21q0 10 8 10h29v58q0 31 21.5 53t52.5 22q51 0 70 -46l3 -9q2 -4 2 -5q0 -4 -6 -7l-20 -9q-2 -1 -5 -1q-4 0 -7 6l-4 10q-9 21 -33 21z" />
    <glyph glyph-name="LamAlefHamzaAboveFinl" unicode="&#xfee0;&#xfe84;" horiz-adv-x="627" arabic-form="final" 
d="M528 128q0 -27 19.5 -41t48.5 -14h47v-73h-34q-80 0 -117 54q-46 -54 -134 -54h-296q-13 0 -13 13v47q0 13 13 13h296q50 0 73.5 23.5t23.5 73.5v538q0 14 13 14h47q13 0 13 -14v-580zM262 642q13 0 13 -14v-459q0 -13 -13 -13h-47q-13 0 -13 13v459q0 14 13 14h47z
M256 839q-14 0 -24.5 -10.5t-10.5 -24.5v-58h102q10 0 10 -10v-21q0 -9 -10 -9h-170q-9 0 -9 9v21q0 10 9 10h28v58q0 31 22 53t53 22q49 0 69 -46l4 -9q1 -2 1 -5q0 -4 -6 -7l-19 -9q-2 -1 -5 -1q-5 0 -8 6l-4 10q-9 21 -32 21z" />
    <glyph glyph-name="LamAlefHamzaBelowIsol" unicode="&#xfedf;&#xfe88;" horiz-adv-x="606" arabic-form="isolated" 
d="M358 73q50 0 73.5 23.5t23.5 73.5v538q0 14 13 14h47q13 0 13 -14v-538q0 -80 -45 -125t-125 -45h-296q-13 0 -13 14v46q0 13 13 13h296zM215 156q-13 0 -13 13v459q0 14 13 14h47q13 0 13 -14v-459q0 -13 -13 -13h-47zM256 -114q-14 0 -24.5 -10.5t-10.5 -24.5v-59h102
q10 0 10 -9v-21q0 -10 -10 -10h-170q-9 0 -9 10v21q0 9 9 9h28v59q0 31 22 53t53 22q49 0 69 -46l5 -10q1 -1 1 -4q0 -4 -7 -8l-19 -8q-2 -1 -5 -1q-5 0 -8 6l-3 9q-9 22 -33 22z" />
    <glyph glyph-name="LamAlefHamzaBelowFinl" unicode="&#xfee0;&#xfe88;" horiz-adv-x="627" arabic-form="final" 
d="M528 128q0 -27 19.5 -41t48.5 -14h47v-73h-34q-65 0 -105 40q-7 7 -12 14q-46 -54 -134 -54h-296q-13 0 -13 13v47q0 13 13 13h296q50 0 73.5 23.5t23.5 73.5v538q0 14 13 14h47q13 0 13 -14v-580zM215 156q-13 0 -13 13v459q0 14 13 14h47q13 0 13 -14v-459
q0 -13 -13 -13h-47zM256 -114q-14 0 -24.5 -10.5t-10.5 -24.5v-59h103q9 0 9 -9v-21q0 -10 -9 -10h-171q-9 0 -9 10v21q0 9 9 9h28v59q0 31 22 53t53 22q49 0 70 -46l4 -10q1 -1 1 -4q0 -4 -7 -8l-19 -8q-2 -1 -5 -1q-6 0 -11 15q-9 22 -33 22z" />
    <glyph glyph-name="LamAlefIsol" unicode="&#xfedf;&#xfe8e;" horiz-adv-x="606" arabic-form="isolated" 
d="M358 73q50 0 73.5 23.5t23.5 73.5v538q0 14 13 14h47q13 0 13 -14v-538q0 -80 -45 -125t-125 -45h-296q-13 0 -13 14v46q0 13 13 13h296zM215 156q-13 0 -13 14v459q0 13 13 13h47q13 0 13 -13v-459q0 -14 -13 -14h-47z" />
    <glyph glyph-name="LamAlefFinl" unicode="&#xfee0;&#xfe8e;" horiz-adv-x="628" arabic-form="final" 
d="M528 128q0 -27 19.5 -41t49.5 -14h46v-73h-34q-65 0 -105 40q-7 7 -12 14q-46 -54 -134 -54h-296q-13 0 -13 13v47q0 13 13 13h296q50 0 73.5 23.5t23.5 73.5v538q0 14 13 14h47q13 0 13 -14v-580zM262 642q13 0 13 -14v-459q0 -13 -13 -13h-47q-13 0 -13 13v459
q0 14 13 14h47z" />
    <glyph glyph-name="Hamza" unicode="&#x621;" horiz-adv-x="468" arabic-form="isolated" 
d="M251 240q-26 0 -44.5 -18.5t-18.5 -43.5v-105h188q14 0 14 -13v-47q0 -13 -14 -13h-314q-13 0 -13 13v47q0 13 13 13h54v105q0 56 39.5 95.5t95.5 39.5q43 0 76.5 -23t48.5 -59l9 -22q1 -3 1 -7q0 -7 -8 -10l-43 -19q-2 -1 -5 -1q-9 0 -13 8l-8 22q-17 38 -58 38z" />
    <glyph glyph-name="AlefMadda" unicode="&#x622;" horiz-adv-x="313" arabic-form="isolated" 
d="M186 13q0 -13 -14 -13h-47q-13 0 -13 13v696q0 13 13 13h47q14 0 14 -13v-696zM83 839q29 0 78 -13q50 -12 61 -12h3q23 0 35 15l6 8q3 3 7 3h1q1 0 5 -2l17 -13q4 -3 4 -7t-2 -6l-7 -8q-24 -30 -65 -30h-2q-26 0 -74 13q-49 13 -66 13h-1q-28 -2 -41 -24l-5 -9
q-1 -2 -6 -4h-2q-3 0 -5 1l-18 10q-6 3 -6 8q0 2 2 6l6 8q24 40 71 43h4z" />
    <glyph glyph-name="AlefHamzaAbove" unicode="&#x623;" horiz-adv-x="305" arabic-form="isolated" 
d="M167 722q13 0 13 -14v-694q0 -14 -13 -14h-47q-14 0 -14 14v694q0 14 14 14h47zM161 927q-14 0 -24.5 -10.5t-10.5 -24.5v-58h102q9 0 9 -9v-22q0 -9 -9 -9h-170q-9 0 -9 9v22q0 9 9 9h28v58q0 31 22 53t53 22q50 0 69 -46l4 -9q1 -1 1 -4q0 -7 -6 -9l-20 -8q-1 -1 -3 -1
q-7 0 -9 6l-4 10q-11 21 -32 21z" />
    <glyph glyph-name="WawHamzaAbove" unicode="&#x624;" horiz-adv-x="568" arabic-form="isolated" 
d="M294 724q-14 0 -24.5 -11t-10.5 -25v-58h102q10 0 10 -9v-21q0 -10 -10 -10h-170q-9 0 -9 10v21q0 9 9 9h28v58q0 31 22 53.5t53 22.5q50 0 69 -46l4 -10q1 -1 1 -3q0 -7 -6 -9l-19 -8q-2 -1 -5 -1q-4 0 -7 5l-5 10q-9 22 -32 22zM142 211q0 -56 40.5 -97t96.5 -41h138
v213q0 56 -41 97t-97 41t-96.5 -41t-40.5 -97v-75zM293 -135q50 0 87 37t37 86v12h-138q-87 0 -149 62t-62 149v75q0 87 62 149t149 62q88 0 150 -62q61 -61 61 -149v-298q0 -80 -58 -138t-139 -58h-103q-13 0 -13 13v47q0 13 13 13h103z" />
    <glyph glyph-name="AlefHamzaBelow" unicode="&#x625;" horiz-adv-x="295" arabic-form="isolated" 
d="M120 0q-13 0 -13 14v694q0 14 13 14h47q13 0 13 -14v-694q0 -14 -13 -14h-47zM161 -109q-14 0 -24.5 -10.5t-10.5 -24.5v-58h102q9 0 9 -9v-22q0 -9 -9 -9h-170q-9 0 -9 9v22q0 9 9 9h28v58q0 31 22 53t53 22q49 0 69 -45l4 -11v-1l1 -2q0 -6 -6 -9l-20 -8q-1 0 -3 -1
q-7 0 -9 6l-4 10q-11 21 -32 21z" />
    <glyph glyph-name="YehHamzaAbove" unicode="&#x626;" horiz-adv-x="988" arabic-form="isolated" 
d="M217 518q-14 0 -24 -10.5t-10 -24.5v-58h102q9 0 9 -9v-22q0 -9 -9 -9h-170q-10 0 -10 9v22q0 9 10 9h28v58q0 31 21.5 53t52.5 22q51 0 70 -45l4 -11q1 -1 1 -3q0 -7 -6 -9l-19 -8q-2 -1 -6 -1t-7 6l-4 10q-10 21 -33 21zM122 100q0 -59 42 -101.5t101 -42.5h313v375
q0 70 48 118q49 49 118 49q68 0 117 -49t49 -118v-185q0 -13 -13 -13h-47q-13 0 -13 13v185q0 38 -27.5 65.5t-65.5 27.5t-65.5 -27.5t-27.5 -65.5v-412q0 -15 -11 -25.5t-26 -10.5h-349q-89 0 -153 63q-63 63 -63 154q0 66 34.5 118.5t86.5 78.5l20 11q2 1 7 1q8 0 11 -7
l22 -42q1 -3 1 -7q0 -7 -7 -11l-21 -10q-35 -18 -58 -53t-23 -79z" />
    <glyph glyph-name="Alef" unicode="&#x627;" horiz-adv-x="234" arabic-form="isolated" 
d="M156 13q0 -13 -12 -13h-48q-13 0 -13 13v696q0 13 13 13h48q12 0 12 -13v-696z" />
    <glyph glyph-name="Beh" unicode="&#x628;" horiz-adv-x="820" arabic-form="isolated" 
d="M618 74q50 0 50 54v329q0 13 14 13h47q13 0 13 -13v-329q0 -58 -35 -93t-93 -35h-349q-90 0 -153 63q-63 65 -63 154q0 66 34.5 119t85.5 79l21 10q2 1 6 1q9 0 12 -7l21 -42q3 -5 3 -7q0 -7 -8 -11l-21 -10q-35 -18 -58 -53t-23 -79q0 -60 42 -102q41 -41 101 -41h353z
M455 -88q13 0 13 -14v-54q0 -13 -13 -13h-50q-13 0 -13 13v54q0 14 13 14h50z" />
    <glyph glyph-name="TehMarbuta" unicode="&#x629;" horiz-adv-x="558" arabic-form="isolated" 
d="M270 73q56 0 96.5 41t40.5 97v75q0 56 -40.5 97t-96.5 41t-97 -40.5t-41 -97.5v-75q0 -56 41 -97t97 -41zM270 497q87 0 149 -62q61 -61 61 -149v-75q0 -88 -61 -149q-62 -62 -149 -62t-149 62t-62 149v75q0 87 62 149t149 62zM178 596q-13 0 -13 13v55q0 13 13 13h50
q13 0 13 -13v-55q0 -13 -13 -13h-50zM312 596q-14 0 -14 13v55q0 13 14 13h49q13 0 13 -13v-55q0 -13 -13 -13h-49z" />
    <glyph glyph-name="Teh" unicode="&#x62a;" horiz-adv-x="820" arabic-form="isolated" 
d="M614 73q55 1 55 54v337q0 14 13 14h47q13 0 13 -14v-337q0 -58 -34.5 -92.5t-92.5 -34.5h-350q-90 0 -153 63t-63 154q0 62 33 116q33 53 87 82l21 10q2 1 7 1q8 0 11 -7l21 -42q2 -4 2 -5q0 -8 -7 -12l-21 -11q-35 -18 -58 -53t-23 -79q0 -59 42.5 -101.5t100.5 -42.5
h349zM352 510q-14 0 -14 13v54q0 13 14 13h49q14 0 14 -13v-54q0 -13 -14 -13h-49zM485 510q-13 0 -13 13v54q0 13 13 13h50q13 0 13 -13v-54q0 -13 -13 -13h-50z" />
    <glyph glyph-name="Theh" unicode="&#x62b;" horiz-adv-x="819" arabic-form="isolated" 
d="M614 73q54 0 54 54v337q0 14 14 14h47q13 0 13 -14v-337q0 -58 -34.5 -92.5t-93.5 -34.5h-349q-90 0 -153 63t-63 154q0 66 34 119t86 79l21 10q2 1 7 1q7 0 11 -7l21 -42q2 -6 2 -7q0 -7 -7 -10l-21 -11q-35 -18 -58 -53t-23 -79q0 -60 42 -102t101 -42h349zM352 510
q-14 0 -14 13v54q0 13 14 13h49q13 0 13 -13v-54q0 -13 -13 -13h-49zM472 577q0 13 13 13h49q14 0 14 -13v-54q0 -13 -14 -13h-49q-13 0 -13 13v54zM418 630q-13 0 -13 13v54q0 13 13 13h50q13 0 13 -13v-54q0 -13 -13 -13h-50z" />
    <glyph glyph-name="Jeem" unicode="&#x62c;" horiz-adv-x="649" arabic-form="isolated" 
d="M359 -66q14 0 14 -14v-53q0 -13 -14 -13h-49q-14 0 -14 13v53q0 14 14 14h49zM401 73q50 0 73.5 23.5t23.5 73.5v96q0 65 -46 111q-47 47 -112 47q-108 0 -159 -74l-14 -19q-4 -7 -9 -7q-4 0 -9 3l-39 27q-4 2 -5 8v2q0 4 2 8l13 19q32 47 90 76.5t130 29.5q97 0 164 -67
t67 -164v-96q0 -80 -45 -125t-125 -45h-205q-34 0 -53.5 -24.5t-19.5 -62.5q0 -36 25 -62t61 -26h61q13 0 13 -13v-47q0 -13 -13 -13h-61q-66 0 -113 47t-47 114q0 68 41 114t106 46h205z" />
    <glyph glyph-name="Hah" unicode="&#x62d;" horiz-adv-x="649" arabic-form="isolated" 
d="M401 73q50 0 73.5 23.5t23.5 73.5v96q0 65 -46 111q-47 47 -112 47q-108 0 -160 -75l-14 -19q-2 -4 -8 -5h-2q-5 0 -8 2l-38 27q-7 4 -7 10q0 4 3 8l14 20q34 47 91.5 76t128.5 29q96 0 163 -67q68 -68 68 -164v-96q0 -80 -45 -125t-125 -45h-205q-34 0 -54 -25t-20 -62
q0 -35 26 -61.5t61 -26.5h61q13 0 13 -13v-47q0 -13 -13 -13h-61q-64 0 -113 47q-47 49 -47 114q0 68 41 114t106 46h205z" />
    <glyph glyph-name="Khah" unicode="&#x62e;" horiz-adv-x="649" arabic-form="isolated" 
d="M401 73q50 0 73.5 23.5t23.5 73.5v96q0 65 -46 111q-47 47 -112 47q-106 0 -160 -75l-13 -19q-5 -6 -10 -6t-9 3l-38 27q-6 4 -6 10q0 4 3 9l14 19q75 105 219 105q97 0 164 -67t67 -164v-96q0 -80 -45 -125t-125 -45h-205q-34 0 -53.5 -24.5t-19.5 -62.5q0 -36 25 -62
t61 -26h61q13 0 13 -13v-47q0 -13 -13 -13h-61q-66 0 -113 47t-47 114q0 69 41 114.5t106 45.5h205zM302 596q-13 0 -13 13v55q0 13 13 13h49q13 0 13 -13v-55q0 -13 -13 -13h-49z" />
    <glyph glyph-name="Dal" unicode="&#x62f;" horiz-adv-x="524" arabic-form="isolated" 
d="M374 317q0 44 -32 75.5t-76 31.5q-64 0 -95 -22l-19 -14q-2 -2 -8 -2h-1q-7 2 -9 5l-28 38q-2 3 -2 8v2q2 7 5 9l20 13q51 37 137 37q74 0 128 -54q53 -53 53 -127v-160q0 -78 -44.5 -117.5t-126.5 -39.5h-214q-13 0 -13 13v47q0 13 13 13h214q53 0 75.5 18t22.5 66v160z
" />
    <glyph glyph-name="Thal" unicode="&#x630;" horiz-adv-x="524" arabic-form="isolated" 
d="M373 317q0 44 -31 75.5t-75 31.5q-65 0 -96 -22l-19 -14q-3 -2 -8 -2h-2q-6 1 -8 5l-28 38q-2 4 -2 8v2q0 6 5 9l19 13q52 37 139 37q73 0 127 -54q53 -53 53 -127v-160q0 -78 -44.5 -117.5t-126.5 -39.5h-214q-13 0 -13 13v47q0 13 13 13h214q52 0 74.5 18t22.5 66v160z
M235 596q-13 0 -13 13v55q0 13 13 13h49q13 0 13 -13v-55q0 -13 -13 -13h-49z" />
    <glyph glyph-name="Reh" unicode="&#x631;" horiz-adv-x="282" arabic-form="isolated" 
d="M34 -135q50 0 73.5 23.5t23.5 73.5v502q0 13 13 13h47q13 0 13 -13v-502q0 -80 -45 -125t-125 -45h-50q-13 0 -13 13v47q0 13 13 13h50z" />
    <glyph glyph-name="Zain" unicode="&#x632;" horiz-adv-x="283" arabic-form="isolated" 
d="M34 -135q50 0 73.5 23.5t23.5 73.5v502q0 13 14 13h46q14 0 14 -13v-502q0 -79 -45.5 -124.5t-125.5 -45.5h-50q-13 0 -13 13v47q0 13 13 13h50zM143 596q-14 0 -14 13v55q0 13 14 13h49q13 0 13 -13v-55q0 -13 -13 -13h-49z" />
    <glyph glyph-name="Seen" unicode="&#x633;" horiz-adv-x="1075" arabic-form="isolated" 
d="M870 74q54 0 54 54v336q0 14 14 14h46q13 0 13 -14v-336q0 -59 -34.5 -93.5t-92.5 -34.5h-50q-74 0 -111 37l-1 2l-2 -4q-37 -35 -94 -35h-134q-15 -75 -74 -125q-60 -51 -138 -51q-90 0 -154 64q-63 63 -63 153v236q0 13 13 13h46q14 0 14 -13v-236q0 -59 43 -102
q42 -42 101 -42t101 42t42 102v423q0 14 13 14h46q13 0 13 -14v-390h131q55 0 55 54v310q0 13 13 13h46q14 0 14 -13v-323q0 -17 9 -26q13 -15 59 -15h62z" />
    <glyph glyph-name="Sheen" unicode="&#x634;" horiz-adv-x="1075" arabic-form="isolated" 
d="M870 74q54 0 54 54v336q0 14 14 14h46q13 0 13 -14v-336q0 -59 -34.5 -93.5t-92.5 -34.5h-50q-74 0 -111 37l-1 2q-1 -2 -3 -4q-35 -35 -93 -35h-134q-15 -75 -74 -125q-60 -51 -138 -51q-90 0 -154 64q-63 63 -63 153v236q0 13 13 13h47q13 0 13 -13v-236
q0 -59 42.5 -101.5t101.5 -42.5t101 42t42 102v423q0 14 13 14h46q14 0 14 -14v-390h130q55 0 55 54v310q0 13 13 13h47q13 0 13 -13v-323q0 -17 9 -26q15 -15 59 -15h62zM611 596q-12 0 -12 14v54q0 13 12 13h50q13 0 13 -13v-54q0 -14 -13 -14h-50zM731 664q0 13 14 13h49
q14 0 14 -13v-55q0 -13 -14 -13h-49q-14 0 -14 13v55zM679 716q-14 0 -14 14v54q0 13 14 13h49q13 0 13 -13v-54q0 -14 -13 -14h-49z" />
    <glyph glyph-name="Sad" unicode="&#x635;" horiz-adv-x="1021" arabic-form="isolated" 
d="M773 73q50 0 73.5 23.5t23.5 73.5v96q0 55 -19 93q-33 65 -112 65q-56 0 -132 -52q-77 -53 -125 -113v-186h291zM266 -103q58 0 100.5 42.5t42.5 101.5v410q0 13 13 13h47q13 0 13 -13v-93q148 139 257 139q95 0 150 -64.5t55 -166.5v-96q0 -79 -45.5 -124.5
t-125.5 -45.5h-295q-14 -75 -74 -125q-60 -51 -138 -51q-91 0 -154 63t-63 154v235q0 14 13 14h47q14 0 14 -14v-235q0 -60 42 -102t101 -42z" />
    <glyph glyph-name="Dad" unicode="&#x636;" horiz-adv-x="1021" arabic-form="isolated" 
d="M676 596q-13 0 -13 13v55q0 13 13 13h49q14 0 14 -13v-55q0 -13 -14 -13h-49zM773 73q50 0 74 23.5t24 73.5v96q0 53 -20 93q-33 65 -112 65q-61 0 -136.5 -55t-120.5 -110v-186h291zM122 41q0 -59 42.5 -101.5t101.5 -42.5t101 42t42 102v410q0 13 13 13h46q14 0 14 -13
v-93q150 139 257 139q95 0 149.5 -64t54.5 -167v-96q0 -80 -45.5 -125t-124.5 -45h-295q-14 -75 -74 -125q-60 -51 -138 -51q-91 0 -154 63t-63 154v235q0 14 13 14h47q13 0 13 -14v-235z" />
    <glyph glyph-name="Tah" unicode="&#x637;" horiz-adv-x="785" arabic-form="isolated" 
d="M537 73q50 0 73.5 23.5t23.5 73.5v96q0 53 -20 93q-33 65 -112 65q-61 0 -138 -55.5t-119 -109.5v-186h292zM707 170q0 -80 -45.5 -125t-124.5 -45h-475q-13 0 -13 14v46q0 13 13 13h110v636q0 13 14 13h46q13 0 13 -13v-351q150 139 257 139q95 0 150 -64.5t55 -166.5
v-96z" />
    <glyph glyph-name="Zah" unicode="&#x638;" horiz-adv-x="785" arabic-form="isolated" 
d="M439 596q-13 0 -13 13v55q0 13 13 13h49q13 0 13 -13v-55q0 -13 -13 -13h-49zM537 73q50 0 73.5 23.5t23.5 73.5v96q0 54 -21 93q-33 65 -111 65q-49 0 -127 -49q-75 -47 -130 -116v-186h292zM707 170q0 -80 -45.5 -125t-124.5 -45h-475q-13 0 -13 14v46q0 13 13 13h109
v636q0 13 15 13h46q13 0 13 -13v-351q150 139 257 139q96 0 150.5 -64t54.5 -167v-96z" />
    <glyph glyph-name="Ain" unicode="&#x639;" horiz-adv-x="693" arabic-form="isolated" 
d="M266 177q0 -42 24 -73t61 -31h252q13 0 13 -13v-47q0 -13 -13 -13h-407q-21 0 -56 -27q-18 -24 -18 -60q0 -37 21 -62q21 -26 66 -26h87q14 0 14 -13v-47q0 -13 -14 -13h-87q-64 0 -113 47q-47 49 -47 114q0 70 42 115q55 45 105 45h26q-29 46 -29 104v109q0 88 62 150
q61 61 149 61q65 0 120 -38q54 -38 69 -94l6 -22q0 -1 0.5 -3t0.5 -3q0 -8 -10 -11l-46 -12q-2 -1 -5 -1q-8 0 -11 11l-6 22q-9 32 -44 55t-74 23q-56 0 -97 -41t-41 -97v-109z" />
    <glyph glyph-name="Ghain" unicode="&#x63a;" horiz-adv-x="694" arabic-form="isolated" 
d="M266 177q0 -42 24 -73t61 -31h252q13 0 13 -13v-47q0 -13 -13 -13h-407q-34 0 -53.5 -24.5t-19.5 -62.5q0 -36 25.5 -62t61.5 -26h86q14 0 14 -13v-47q0 -13 -14 -13h-86q-67 0 -114 47t-47 114q0 69 41 114.5t106 45.5h26q-29 46 -29 104v109q0 88 62 150q61 61 149 61
q70 0 122 -36q51 -35 68 -96l5 -23q1 -2 1 -5q0 -8 -10 -11l-46 -12h-3q-5 0 -7 1q-4 3 -6 9l-6 22q-9 35 -42 56.5t-76 21.5q-56 0 -97 -41t-41 -97v-109zM366 596q-12 0 -12 13v55q0 13 12 13h50q13 0 13 -13v-55q0 -13 -13 -13h-50z" />
    <glyph glyph-name="Feh" unicode="&#x641;" horiz-adv-x="1104" arabic-form="isolated" 
d="M678 211q0 -56 40.5 -97t96.5 -41h138v213q0 56 -41 97t-97 41q-57 0 -97 -40.5t-40 -97.5v-75zM1027 37q0 -15 -11 -26t-26 -11h-724q-90 0 -153 63q-64 63 -64 154q0 66 34.5 118.5t86.5 78.5l21 11q2 1 6 1q7 0 11 -7l22 -42q1 -2 1 -5q0 -10 -7 -13l-21 -10
q-34 -18 -57 -53t-23 -79q0 -60 42 -102t101 -42h389q-51 60 -51 138v75q0 88 62 150t149 62q88 0 150 -62t62 -150v-249zM779 596q-14 0 -14 13v55q0 13 14 13h49q13 0 13 -13v-55q0 -13 -13 -13h-49z" />
    <glyph glyph-name="Qaf" unicode="&#x642;" horiz-adv-x="747" arabic-form="isolated" 
d="M320 211q0 -56 41 -97t97 -41h137v214q0 56 -40.5 96.5t-96.5 40.5t-97 -40.5t-41 -96.5v-76zM472 -129q50 0 86.5 37t36.5 87v5h-137q-88 0 -150 62t-62 149v76q0 87 62 149t150 62q87 0 149 -62t62 -149v-292q0 -80 -59 -139t-138 -59h-206q-90 0 -154 64
q-63 63 -63 153v156q0 14 13 14h47q13 0 13 -14v-156q0 -59 42.5 -101t101.5 -42h206zM363 596q-13 0 -13 13v55q0 13 13 13h49q13 0 13 -13v-55q0 -13 -13 -13h-49zM496 596q-13 0 -13 13v55q0 13 13 13h49q14 0 14 -13v-55q0 -13 -14 -13h-49z" />
    <glyph glyph-name="Kaf" unicode="&#x643;" horiz-adv-x="806" arabic-form="isolated" 
d="M601 73q54 0 54 54v581q0 14 13 14h47q14 0 14 -14v-581q0 -58 -34.5 -92.5t-92.5 -34.5h-337q-89 0 -153 63q-63 63 -63 154q0 66 34 119t86 79l21 10q2 1 7 1q7 0 11 -7l21 -42q2 -4 2 -5q0 -8 -7 -12l-21 -11q-35 -18 -58 -53t-23 -79q0 -60 42 -102t101 -42h336z
M434 500q-14 0 -25 -11t-11 -25v-58h102q10 0 10 -9v-22q0 -9 -10 -9h-169q-10 0 -10 9v22q0 9 10 9h27v58q0 31 22.5 53.5t53.5 22.5q49 0 68 -46l4 -10v-2l1 -2q0 -6 -6 -9l-19 -8q-1 -1 -4 -1q-5 0 -9 6l-4 10q-9 22 -31 22z" />
    <glyph glyph-name="Lam" unicode="&#x644;" horiz-adv-x="560" arabic-form="isolated" 
d="M265 -103q59 0 101 42.5t42 101.5v667q0 14 14 14h46q14 0 14 -14v-667q0 -90 -64 -154q-63 -63 -153 -63t-153 63t-63 154v235q0 14 13 14h47q13 0 13 -14v-235q0 -59 42 -101.5t101 -42.5z" />
    <glyph glyph-name="Meem" unicode="&#x645;" horiz-adv-x="725" arabic-form="isolated" 
d="M437 73q56 0 96.5 41t40.5 97v75q0 56 -40.5 96.5t-96.5 40.5q-57 0 -98 -40t-41 -97v-213h139zM49 -68q0 58 41.5 99.5t99.5 41.5h35v213q0 87 62 149t150 62q86 0 148 -62t62 -149v-75q0 -87 -62 -149t-148 -62h-247q-28 0 -48 -20t-20 -48v-134q0 -13 -14 -13h-46
q-13 0 -13 13v134z" />
    <glyph glyph-name="Noon" unicode="&#x646;" horiz-adv-x="560" arabic-form="isolated" 
d="M266 -103q59 0 101 42.5t42 101.5v423q0 14 13 14h46q14 0 14 -14v-423q0 -90 -64 -154q-63 -63 -152 -63q-91 0 -154 63t-63 154v235q0 14 13 14h47q13 0 13 -14v-235q0 -59 42.5 -101.5t101.5 -42.5zM227 510q-13 0 -13 13v54q0 13 13 13h50q13 0 13 -13v-54
q0 -13 -13 -13h-50z" />
    <glyph glyph-name="Heh" unicode="&#x647;" horiz-adv-x="549" arabic-form="isolated" 
d="M260 73q56 0 97 41t41 97v75q0 56 -41 97t-97 41t-97 -41t-41 -97v-75q0 -56 41 -97t97 -41zM260 497q87 0 149 -62t62 -149v-75q0 -87 -62 -149t-149 -62t-149 62t-62 149v75q0 87 62 149t149 62z" />
    <glyph glyph-name="Waw" unicode="&#x648;" horiz-adv-x="548" arabic-form="isolated" 
d="M122 211q0 -56 41 -97t97 -41h137v213q0 56 -40.5 97t-96.5 41t-97 -40.5t-41 -97.5v-75zM274 -135q50 0 86.5 36.5t36.5 86.5v12h-137q-87 0 -149 62t-62 149v75q0 87 62 149t149 62t149 -62t62 -149v-298q0 -80 -58 -138t-139 -58h-104q-13 0 -13 13v47q0 13 13 13h104
z" />
    <glyph glyph-name="AlefMaqsura" unicode="&#x649;" horiz-adv-x="988" arabic-form="isolated" 
d="M122 100q0 -59 42 -101.5t101 -42.5h313v375q0 70 48 118q49 49 118 49q68 0 117 -49t49 -118v-185q0 -13 -13 -13h-47q-13 0 -13 13v185q0 38 -27.5 65.5t-65.5 27.5t-65.5 -27.5t-27.5 -65.5v-412q0 -15 -11 -25.5t-26 -10.5h-349q-90 0 -153 63t-63 154
q0 66 34.5 118.5t86.5 78.5l20 11q2 1 7 1q7 0 11 -7l22 -42q1 -3 1 -7q0 -7 -7 -11l-21 -10q-35 -18 -58 -53t-23 -79z" />
    <glyph glyph-name="Yeh" unicode="&#x64a;" horiz-adv-x="988" arabic-form="isolated" 
d="M651 -81q0 -15 -11 -25.5t-26 -10.5h-349q-90 0 -153 63t-63 153q0 66 34.5 119t86.5 79l20 10q4 2 7 2q7 0 11 -7l22 -42q1 -3 1 -7q0 -7 -7 -11l-21 -10q-34 -18 -57.5 -53.5t-23.5 -79.5q0 -59 42 -101t101 -42h313v375q0 69 48 117q49 49 118 49q68 0 117 -49
t49 -117v-185q0 -13 -13 -13h-47q-13 0 -13 13v185q0 38 -27.5 65.5t-65.5 27.5t-65.5 -27.5t-27.5 -65.5v-412zM350 -212q13 0 13 -14v-54q0 -13 -13 -13h-50q-13 0 -13 13v54q0 14 13 14h50zM483 -212q14 0 14 -14v-54q0 -13 -14 -13h-49q-14 0 -14 13v54q0 14 14 14h49z
" />
    <glyph glyph-name="AlefMaddaFinl" unicode="&#x622;" horiz-adv-x="265" arabic-form="final" 
d="M178 127q0 -54 52 -54h53v-73h-51q-59 0 -93.5 34.5t-34.5 92.5v568q0 13 14 13h47q13 0 13 -13v-568zM29 762q-2 0 -6 2l-18 10q-5 3 -5 8q0 1 2 5l5 9q24 40 69 43h5q26 0 69 -13q41 -13 54 -13h1q21 0 34 16l7 8q3 4 6 4q4 0 7 -3l16 -13q4 -3 4 -7t-2 -6l-7 -8
q-25 -31 -63 -31q-19 0 -69 15q-37 11 -58 11h-3q-24 -2 -35 -23l-5 -9q-3 -5 -8 -5z" />
    <glyph glyph-name="AlefHamzaAboveFinl" unicode="&#x623;" horiz-adv-x="251" arabic-form="final" 
d="M146 922q-14 0 -24.5 -10.5t-10.5 -24.5v-58h102q10 0 10 -10v-21q0 -9 -10 -9h-170q-9 0 -9 9v21q0 10 9 10h28v58q0 31 22 53t53 22q50 0 69 -45l4 -11q1 -1 1 -3q0 -5 -6 -9l-20 -8q-1 -1 -4 -1q-4 0 -7 6l-5 10q-9 21 -32 21zM165 128q0 -55 54 -55h47v-73h-47
q-59 0 -93.5 35t-34.5 93v580q0 14 14 14h46q14 0 14 -14v-580z" />
    <glyph glyph-name="WawHamzaAboveFinl" unicode="&#x624;" horiz-adv-x="617" arabic-form="final" 
d="M294 724q-14 0 -24.5 -11t-10.5 -25v-58h103q9 0 9 -9v-21q0 -10 -9 -10h-171q-9 0 -9 10v21q0 9 9 9h28v58q0 31 22 53.5t53 22.5q50 0 69 -46l4 -10q1 -1 1 -4q0 -6 -5 -8l-20 -8q-2 -1 -5 -1q-4 0 -7 5l-5 10q-9 22 -32 22zM142 211q0 -56 41 -97t97 -41h137v213
q0 56 -40.5 97t-96.5 41t-97 -41t-41 -97v-75zM293 -135q50 0 87 36.5t37 86.5v12h-137q-88 0 -150 62t-62 149v75q0 87 62 149t150 62q87 0 149 -62t62 -149v-213h151v-73h-151v-12q0 -79 -59 -138q-58 -58 -139 -58h-103q-13 0 -13 13v47q0 13 13 13h103z" />
    <glyph glyph-name="AlefHamzaBelowFinl" unicode="&#x625;" horiz-adv-x="254" arabic-form="final" 
d="M176 -114q-14 0 -24.5 -10t-10.5 -25v-59h102q9 0 9 -9v-21q0 -10 -9 -10h-170q-10 0 -10 10v21q0 9 10 9h28v59q0 31 22 53t53 22q49 0 69 -46l4 -10q1 -1 1 -4q0 -6 -6 -8l-20 -8h-1q-1 -1 -2 -1q-6 0 -9 6l-4 9q-9 22 -32 22zM168 127q0 -54 54 -54h47v-73h-47
q-58 0 -92.5 34.5t-34.5 92.5v581q0 14 13 14h47q13 0 13 -14v-581z" />
    <glyph glyph-name="YehHamzaAboveFinl" unicode="&#x626;" horiz-adv-x="1011" arabic-form="final" 
d="M217 514q-14 0 -24 -10.5t-10 -24.5v-59h102q9 0 9 -9v-21q0 -10 -9 -10h-170q-10 0 -10 10v21q0 9 10 9h28v59q0 31 21.5 53t52.5 22q51 0 70 -46l4 -10q1 -1 1 -4q0 -7 -6 -9l-20 -7h-1q-1 -1 -2 -1q-8 0 -9 5l-4 10q-9 22 -33 22zM122 100q0 -59 42 -101.5t101 -42.5
h313v375q0 70 48 118q48 49 118 49q68 0 117 -49t49 -118v-258h126v-73h-162q-15 0 -26 11t-11 26v294q0 38 -27.5 65.5t-65.5 27.5t-65.5 -27.5t-27.5 -65.5v-411q0 -15 -11 -26t-26 -11h-351q-87 0 -151 63q-63 63 -63 154q0 66 34.5 118.5t85.5 78.5l21 11q4 2 6 2
q8 0 12 -8l21 -41q2 -6 2 -8q0 -6 -7 -10l-21 -11q-35 -18 -58 -53t-23 -79z" />
    <glyph glyph-name="YehHamzaAboveInit" unicode="&#x626;" horiz-adv-x="359" arabic-form="initial" 
d="M239 687q-14 0 -24.5 -10.5t-10.5 -24.5v-58h102q9 0 9 -10v-21q0 -9 -9 -9h-170q-9 0 -9 9v21q0 10 9 10h28v58q0 31 22 53t53 22q50 0 69 -46l4 -10q1 -2 1 -4q0 -5 -6 -8l-19 -9q-2 -1 -5 -1q-5 0 -8 7l-4 10q-9 21 -32 21zM142 73q52 1 52 54v337q0 14 14 14h46
q14 0 14 -14v-337q0 -58 -35 -92.5t-93 -34.5h-150v73h151h1z" />
    <glyph glyph-name="YehHamzaAboveMedi" unicode="&#x626;" horiz-adv-x="366" arabic-form="medial" 
d="M252 687q-14 0 -24.5 -10.5t-10.5 -24.5v-59h102q10 0 10 -9v-22q0 -9 -10 -9h-170q-9 0 -9 9v22q0 9 9 9h28v59q0 31 22 53t53 22q49 0 69 -46l4 -10q1 -1 1 -4q0 -6 -6 -8l-19 -8q-2 -1 -5 -1q-4 0 -7 6l-5 10q-9 21 -32 21zM142 73q52 0 52 55v336q0 14 14 14h46
q14 0 14 -14v-350q0 -17 8 -25q16 -16 59 -16h46v-73h-34q-72 0 -111 39q-1 -1 -1.5 -3t-1.5 -2q-34 -34 -93 -34h-150v73h152z" />
    <glyph glyph-name="AlefFinl" unicode="&#x627;" horiz-adv-x="242" arabic-form="final" 
d="M156 127q0 -54 52 -54h49v-73h-47q-58 0 -92.5 34t-34.5 93v581q0 14 13 14h47q13 0 13 -14v-581z" />
    <glyph glyph-name="BehFinl" unicode="&#x628;" horiz-adv-x="842" arabic-form="final" 
d="M615 74q54 0 54 54v336q0 14 13 14h47q13 0 13 -14v-349q0 -19 9 -26q16 -16 59 -16h47v-73h-35q-72 0 -111 39q-33 -39 -96 -39h-350q-89 0 -152 63q-64 64 -64 154q0 66 34.5 118.5t86.5 78.5l20 11q2 1 7 1q7 0 11 -7l22 -42q2 -6 2 -7q0 -6 -8 -11l-21 -10
q-35 -18 -58 -53t-23 -79q0 -60 42 -102q41 -41 102 -41h349zM455 -88q13 0 13 -14v-59q0 -13 -13 -13h-49q-14 0 -14 13v59q0 14 14 14h49z" />
    <glyph glyph-name="BehInit" unicode="&#x628;" horiz-adv-x="345" arabic-form="initial" 
d="M189 -88q13 0 13 -14v-59q0 -13 -13 -13h-49q-14 0 -14 13v59q0 14 14 14h49zM140 73q29 1 41.5 13.5t12.5 40.5v337q0 14 14 14h46q14 0 14 -14v-336q0 -58 -35 -93t-93 -35h-150v73h150z" />
    <glyph glyph-name="BehMedi" unicode="&#x628;" horiz-adv-x="361" arabic-form="medial" 
d="M136 73q53 1 53 54v337q0 14 13 14h47q13 0 13 -14v-350q0 -17 9 -26q15 -15 59 -15h46v-73h-34q-72 0 -111 39q-39 -39 -96 -39h-145v73h146zM250 -88q14 0 14 -14v-59q0 -13 -14 -13h-49q-13 0 -13 13v59q0 14 13 14h49z" />
    <glyph glyph-name="TehMarbutaFinl" unicode="&#x629;" horiz-adv-x="588" arabic-form="final" 
d="M122 211q0 -56 41 -97t97 -41h138v213q0 57 -40.5 97.5t-97.5 40.5t-97.5 -41t-40.5 -97v-75zM628 73v-73h-368q-87 0 -149 62t-62 149v75q0 88 62 150t149 62t149 -62t62 -150v-213h157zM154 596q-13 0 -13 13v59q0 14 13 14h50q13 0 13 -14v-59q0 -13 -13 -13h-50z
M288 596q-14 0 -14 13v59q0 14 14 14h49q14 0 14 -14v-59q0 -13 -14 -13h-49z" />
    <glyph glyph-name="TehFinl" unicode="&#x62a;" horiz-adv-x="841" arabic-form="final" 
d="M614 73q55 0 55 55v336q0 14 13 14h47q13 0 13 -14v-350q0 -17 8 -25q16 -16 60 -16h46v-73h-34q-73 0 -111 38v1q-31 -39 -96 -39h-350q-90 0 -153 63q-63 65 -63 153q0 66 34.5 119t86.5 79l20 11q2 1 6 1q8 0 12 -7l21 -42q2 -6 2 -7q0 -7 -7 -11l-21 -10
q-34 -18 -57.5 -53.5t-23.5 -79.5q0 -59 42 -101t101 -42h349zM352 510q-13 0 -13 13v59q0 13 13 13h49q14 0 14 -13v-59q0 -13 -14 -13h-49zM485 510q-13 0 -13 13v59q0 13 13 13h50q13 0 13 -13v-59q0 -13 -13 -13h-50z" />
    <glyph glyph-name="TehInit" unicode="&#x62a;" horiz-adv-x="386" arabic-form="initial" 
d="M162 596q-14 0 -14 13v59q0 14 14 14h48q14 0 14 -14v-59q0 -13 -14 -13h-48zM344 682q13 0 13 -14v-59q0 -13 -13 -13h-49q-14 0 -14 13v59q0 14 14 14h49zM164 73q52 1 52 54v337q0 14 13 14h47q13 0 13 -14v-337q0 -58 -34.5 -92.5t-92.5 -34.5h-172v73h173h1z" />
    <glyph glyph-name="TehMedi" unicode="&#x62a;" horiz-adv-x="389" arabic-form="medial" 
d="M164 73q52 0 52 55v336q0 14 13 14h47q13 0 13 -14v-350q0 -16 9 -25q16 -16 59 -16h47v-73h-34q-74 0 -111 37q0 1 -0.5 1t-0.5 1l-4 -5q-34 -34 -92 -34h-172v73h174zM161 596q-14 0 -14 13v59q0 14 14 14h50q13 0 13 -14v-59q0 -13 -13 -13h-50zM294 596q-13 0 -13 13
v59q0 14 13 14h49q14 0 14 -14v-59q0 -13 -14 -13h-49z" />
    <glyph glyph-name="ThehFinl" unicode="&#x62b;" horiz-adv-x="841" arabic-form="final" 
d="M615 73q54 0 54 55v336q0 14 13 14h47q13 0 13 -14v-350q0 -16 9 -25q16 -16 59 -16h46v-73h-34q-73 0 -110 37l-1 2l-4 -5h1q-34 -34 -93 -34h-349q-91 0 -154 63q-63 65 -63 153q0 62 33 116t88 82l20 11q2 1 6 1q8 0 13 -7l20 -42q3 -5 3 -7q0 -6 -8 -11l-20 -10
q-34 -18 -58 -53.5t-24 -79.5q0 -59 42.5 -101t101.5 -42h349zM352 510q-13 0 -13 13v59q0 13 13 13h49q14 0 14 -13v-59q0 -13 -14 -13h-49zM472 582q0 13 13 13h50q13 0 13 -13v-59q0 -13 -13 -13h-50q-13 0 -13 13v59zM419 635q-14 0 -14 13v59q0 13 14 13h49
q13 0 13 -13v-59q0 -13 -13 -13h-49z" />
    <glyph glyph-name="ThehInit" unicode="&#x62b;" horiz-adv-x="380" arabic-form="initial" 
d="M156 596q-14 0 -14 13v59q0 14 14 14h49q13 0 13 -14v-59q0 -13 -13 -13h-49zM338 682q14 0 14 -14v-59q0 -13 -14 -13h-49q-14 0 -14 13v59q0 14 14 14h49zM222 721q-13 0 -13 13v59q0 13 13 13h49q14 0 14 -13v-59q0 -13 -14 -13h-49zM160 73q50 1 50 54v337
q0 14 13 14h47q14 0 14 -14v-337q0 -56 -33.5 -91.5t-88.5 -35.5h-172v73h170z" />
    <glyph glyph-name="ThehMedi" unicode="&#x62b;" horiz-adv-x="362" arabic-form="medial" 
d="M137 73q52 0 52 55v336q0 14 14 14h46q14 0 14 -14v-350q0 -17 8 -25q16 -16 60 -16h46v-73h-34q-73 0 -111 38l-1 1q-2 -4 -3 -5q-34 -34 -93 -34h-145v73h147zM135 596q-13 0 -13 13v59q0 14 13 14h49q13 0 13 -14v-59q0 -13 -13 -13h-49zM254 668q0 14 14 14h49
q14 0 14 -14v-59q0 -13 -14 -13h-49q-14 0 -14 13v59zM201 721q-13 0 -13 13v59q0 13 13 13h49q14 0 14 -13v-59q0 -13 -14 -13h-49z" />
    <glyph glyph-name="JeemFinl" unicode="&#x62c;" horiz-adv-x="670" arabic-form="final" 
d="M359 -66q13 0 13 -14v-58q0 -13 -13 -13h-49q-14 0 -14 13v58q0 14 14 14h49zM401 73q50 0 73.5 23.5t23.5 73.5v96q0 65 -46 111q-47 47 -112 47q-104 0 -160 -75l-14 -19q-4 -6 -10 -6q-4 0 -9 3l-38 28q-5 4 -5 10q0 5 3 9l14 18q77 105 219 105q95 0 163 -68t68 -163
v-152q0 -16 9 -25q16 -16 59 -16h47v-73h-35q-86 0 -121 50q-44 -50 -129 -50h-205q-34 0 -54 -25t-20 -62q0 -36 26 -62t62 -26h60q13 0 13 -13v-47q0 -13 -13 -13h-60q-67 0 -114 47t-47 114q0 69 41 114.5t106 45.5h205z" />
    <glyph glyph-name="JeemInit" unicode="&#x62c;" horiz-adv-x="660" arabic-form="initial" 
d="M321 -88q13 0 13 -14v-59q0 -13 -13 -13h-49q-14 0 -14 13v59q0 14 14 14h49zM413 73q50 0 73 23.5t23 73.5v96q0 65 -46 111q-47 47 -112 47q-107 0 -160 -74l-13 -19q-4 -7 -10 -7q-4 0 -8 3l-38 27q-7 4 -7 10q0 4 3 9l13 19q33 48 90 77t130 29q96 0 164 -68t68 -164
v-96q0 -80 -45.5 -125t-124.5 -45h-423v73h423z" />
    <glyph glyph-name="JeemMedi" unicode="&#x62c;" horiz-adv-x="682" arabic-form="medial" 
d="M321 -88q13 0 13 -14v-59q0 -13 -13 -13h-50q-13 0 -13 13v59q0 14 13 14h50zM412 73q50 1 73.5 24t23.5 73v96q0 65 -46 111q-47 47 -112 47q-106 0 -160 -75l-14 -19q-5 -6 -10 -6q-3 0 -8 3l-38 27q-5 3 -6 9v2q0 3 3 8l13 19q75 105 220 105q97 0 164 -67
q68 -68 68 -164v-152q0 -18 8 -26q15 -15 59 -15h47v-73h-34q-84 0 -121 50q-44 -50 -130 -50h-422v73h422z" />
    <glyph glyph-name="HahFinl" unicode="&#x62d;" horiz-adv-x="670" arabic-form="final" 
d="M401 73q50 0 73.5 23.5t23.5 73.5v96q0 65 -46 111q-47 47 -112 47q-107 0 -160 -74l-13 -19q-3 -5 -9 -6h-3q-5 0 -7 2l-38 27q-5 3 -6 8v3q0 4 2 8l14 19q74 105 220 105q95 0 163 -68t68 -163v-152q0 -16 9 -25q16 -16 59 -16h47v-73h-35q-87 0 -121 50
q-44 -50 -129 -50h-205q-34 0 -54 -24.5t-20 -62.5q0 -36 25.5 -62t61.5 -26h60q14 0 14 -13v-47q0 -13 -14 -13h-60q-64 0 -113 47q-47 49 -47 114q0 69 41 114.5t106 45.5h205z" />
    <glyph glyph-name="HahInit" unicode="&#x62d;" horiz-adv-x="660" arabic-form="initial" 
d="M413 73q50 0 73 23.5t23 73.5v96q0 65 -46 111q-47 47 -111 47q-105 0 -161 -75l-14 -19q-5 -6 -10 -6q-3 0 -8 3l-38 27q-7 4 -7 11q0 3 4 9l14 18q77 106 220 106q95 0 163 -68t68 -164v-96q0 -80 -45.5 -125t-124.5 -45h-423v73h423z" />
    <glyph glyph-name="HahMedi" unicode="&#x62d;" horiz-adv-x="682" arabic-form="medial" 
d="M413 73q50 0 73 23.5t23 73.5v96q0 65 -46 111q-47 47 -111 47q-108 0 -161 -75l-13 -19q-4 -6 -11 -6q-3 0 -8 3l-38 27q-3 2 -5 9v2q0 4 2 8l13 19q77 105 221 105q95 0 163 -68t68 -163v-152q0 -17 8 -25q16 -16 59 -16h47v-73h-34q-86 0 -121 50q-44 -50 -129 -50
h-423v73h423z" />
    <glyph glyph-name="KhahFinl" unicode="&#x62e;" horiz-adv-x="670" arabic-form="final" 
d="M571 114q0 -24 17.5 -32.5t50.5 -8.5h47v-73h-35q-71 0 -110 37l-2.5 2.5t-4 4.5t-4.5 6q-44 -50 -129 -50h-205q-34 0 -54 -24.5t-20 -62.5q0 -36 25.5 -62t61.5 -26h61q13 0 13 -13v-47q0 -13 -13 -13h-61q-64 0 -113 47q-47 49 -47 114q0 69 41 114.5t106 45.5h205
q50 0 73.5 23.5t23.5 73.5v96q0 65 -46 111q-47 47 -112 47q-108 0 -160 -75l-14 -19q-4 -6 -10 -6q-4 0 -9 3l-38 27q-3 2 -5 9v2q0 6 2 8l14 19q77 105 220 105q95 0 163 -68t68 -163v-152zM303 596q-13 0 -13 13v59q0 14 13 14h49q13 0 13 -14v-59q0 -13 -13 -13h-49z
" />
    <glyph glyph-name="KhahInit" unicode="&#x62e;" horiz-adv-x="660" arabic-form="initial" 
d="M413 73q50 0 73.5 23.5t23.5 73.5v96q0 64 -47 111t-111 47q-108 0 -161 -75l-13 -18q-3 -5 -9 -6h-2q-4 0 -7 2l-38 27q-4 3 -6 9v2q0 6 2 8l13 19q75 106 221 106q95 0 163 -68t68 -164v-96q0 -80 -45.5 -125t-124.5 -45h-423v73h423zM313 596q-13 0 -13 13v59
q0 14 13 14h49q13 0 13 -14v-59q0 -13 -13 -13h-49z" />
    <glyph glyph-name="KhahMedi" unicode="&#x62e;" horiz-adv-x="682" arabic-form="medial" 
d="M413 73q50 0 73.5 23.5t23.5 73.5v96q0 64 -47 111t-111 47q-107 0 -161 -75l-14 -19q-5 -6 -10 -6q-3 0 -8 3l-38 27q-6 4 -6 10q0 3 4 9l13 19q76 105 220 105q95 0 163 -68t68 -163v-152q0 -17 8 -25q16 -16 59 -16h47v-73h-35q-85 0 -120 50q-44 -50 -129 -50h-423
v73h423zM313 596q-13 0 -13 13v59q0 14 13 14h50q13 0 13 -14v-59q0 -13 -13 -13h-50z" />
    <glyph glyph-name="DalFinl" unicode="&#x62f;" horiz-adv-x="551" arabic-form="final" 
d="M452 128q0 -27 19 -41t49 -14h46v-73h-34q-63 0 -105 40l-9 10q-43 -50 -136 -50h-215q-13 0 -13 13v47q0 13 13 13h215q52 0 74.5 18t22.5 66v160q0 43 -32 75t-76 32q-63 0 -95 -23l-19 -13q-3 -2 -8 -2h-2q-5 0 -8 5l-27 38q-3 3 -3 8v2q1 6 6 9l18 13q51 36 138 36
q75 0 128 -53t53 -127v-189z" />
    <glyph glyph-name="ThalFinl" unicode="&#x630;" horiz-adv-x="551" arabic-form="final" 
d="M452 128q0 -27 18.5 -41t48.5 -14h47v-73h-33q-73 0 -110 45l-5 5q-43 -50 -136 -50h-215q-13 0 -13 13v47q0 13 13 13h215q52 0 74 18t22 66v160q0 43 -32 75t-75 32q-63 0 -95 -23l-18 -13q-3 -2 -9 -2h-2q-5 0 -8 5l-28 38q-2 4 -2 7v3q0 3 6 9l18 13q51 36 138 36
q75 0 128 -53t53 -127v-189zM240 596q-13 0 -13 13v59q0 14 13 14h49q13 0 13 -14v-59q0 -13 -13 -13h-49z" />
    <glyph glyph-name="RehFinl" unicode="&#x631;" horiz-adv-x="318" arabic-form="final" 
d="M34 -135q50 0 73.5 23.5t23.5 73.5v501q0 14 14 14h46q14 0 14 -14v-390h152v-73h-152v-38q0 -79 -45.5 -124.5t-125.5 -45.5h-50q-13 0 -13 13v47q0 13 13 13h50z" />
    <glyph glyph-name="ZainFinl" unicode="&#x632;" horiz-adv-x="318" arabic-form="final" 
d="M34 -135q50 0 73.5 23.5t23.5 73.5v501q0 14 13 14h47q14 0 14 -14v-390h153v-73h-153v-38q0 -79 -45.5 -124.5t-125.5 -45.5h-50q-13 0 -13 13v47q0 13 13 13h50zM144 596q-13 0 -13 13v59q0 14 13 14h49q14 0 14 -14v-59q0 -13 -14 -13h-49z" />
    <glyph glyph-name="SeenFinl" unicode="&#x633;" horiz-adv-x="1096" arabic-form="final" 
d="M997 128q0 -27 19 -41t48 -14h47v-73h-33q-65 0 -105 40l-3 3q-1 -2 -8 -9q-34 -34 -93 -34h-50q-72 0 -111 39q-1 -1 -2 -3l-1 -2q-34 -34 -93 -34h-134q-15 -77 -74 -125q-60 -51 -139 -51q-90 0 -153 63t-63 154v235q0 14 13 14h47q13 0 13 -14v-235q0 -60 42 -102
t101 -42t101 42t42 102v423q0 14 14 14h46q14 0 14 -14v-391h130q54 0 54 55v310q0 13 13 13h48q12 0 12 -13v-324q0 -16 9 -25q18 -16 59 -16h63q54 0 54 55v336q0 14 14 14h45q14 0 14 -14v-336z" />
    <glyph glyph-name="SeenInit" unicode="&#x633;" horiz-adv-x="838" arabic-form="initial" 
d="M632 73q55 0 55 54v338q0 13 13 13h47q13 0 13 -13v-338q0 -58 -34.5 -92.5t-93.5 -34.5h-50q-72 0 -111 39q0 -1 -4 -5q-34 -34 -92 -34h-50q-73 0 -111 38l-1 1q-1 -1 -3 -5q-34 -34 -93 -34h-127v73h128h1q52 1 52 54v338q0 13 14 13h46q13 0 13 -13v-351q0 -16 9 -25
q16 -16 59 -16h64q53 0 53 54v311q0 13 13 13h47q13 0 13 -13v-324q0 -16 9 -25q16 -16 58 -16h63z" />
    <glyph glyph-name="SeenMedi" unicode="&#x633;" horiz-adv-x="859" arabic-form="medial" 
d="M760 128q0 -27 19 -41t48 -14h47v-73h-34q-63 0 -105 40l-1 1q-2 1 -2 2q-2 -4 -7 -9q-34 -34 -92 -34h-51q-71 0 -110 37v1l-1 1l-4 -5q-34 -34 -93 -34h-50q-73 0 -111 38v1q-1 -2 -4 -5q-34 -34 -92 -34h-127v73h129q52 0 52 55v336q0 14 13 14h47q13 0 13 -14v-350
q0 -17 8 -25q18 -16 60 -16h64q53 0 53 55v310q0 13 13 13h47q13 0 13 -13v-324q0 -17 8 -25q16 -16 60 -16h63q54 0 54 55v336q0 14 13 14h47q13 0 13 -14v-336z" />
    <glyph glyph-name="SheenFinl" unicode="&#x634;" horiz-adv-x="1097" arabic-form="final" 
d="M997 128q0 -27 19.5 -41t48.5 -14h47v-73h-34q-63 0 -105 40l-3 3q-2 -4 -7 -9q-34 -34 -92 -34h-51q-71 0 -110 37l-2 2q-34 -39 -96 -39h-134q-14 -75 -74 -125q-60 -51 -138 -51q-91 0 -154 63t-63 154v235q0 14 13 14h47q14 0 14 -14v-235q0 -59 42.5 -101.5
t100.5 -42.5q59 0 101 42t42 102v423q0 14 13 14h47q13 0 13 -14v-391h130q55 0 55 55v310q0 13 13 13h47q13 0 13 -13v-324q0 -18 9 -25q16 -16 59 -16h62q54 0 54 55v336q0 14 14 14h46q13 0 13 -14v-336zM612 596q-13 0 -13 13v59q0 14 13 14h49q13 0 13 -14v-59
q0 -13 -13 -13h-49zM732 668q0 14 13 14h49q14 0 14 -14v-59q0 -13 -14 -13h-49q-13 0 -13 13v59zM679 721q-14 0 -14 13v59q0 13 14 13h49q13 0 13 -13v-59q0 -13 -13 -13h-49z" />
    <glyph glyph-name="SheenInit" unicode="&#x634;" horiz-adv-x="838" arabic-form="initial" 
d="M632 73q55 0 55 54v338q0 13 13 13h47q13 0 13 -13v-338q0 -58 -35 -92.5t-93 -34.5h-50q-73 0 -110 37l-1 2q-1 -2 -4 -5q-36 -34 -93 -34h-49q-74 0 -111 37l-1 2q-34 -39 -96 -39h-127v73h128h1q52 1 52 54v338q0 13 13 13h46q14 0 14 -13v-351q0 -16 9 -25
q14 -16 59 -16h64q53 0 53 54v311q0 13 13 13h47q13 0 13 -13v-324q0 -24 16.5 -32.5t50.5 -8.5h63zM374 596q-13 0 -13 13v59q0 14 13 14h49q14 0 14 -14v-59q0 -13 -14 -13h-49zM494 668q0 14 13 14h50q13 0 13 -14v-59q0 -13 -13 -13h-50q-13 0 -13 13v59zM441 721
q-13 0 -13 13v59q0 13 13 13h49q13 0 13 -13v-59q0 -13 -13 -13h-49z" />
    <glyph glyph-name="SheenMedi" unicode="&#x634;" horiz-adv-x="859" arabic-form="medial" 
d="M760 128q0 -27 19 -41t48 -14h47v-73h-34q-63 0 -105 40q-1 1 -2 3q-31 -43 -101 -43h-50q-72 0 -111 39q-1 -1 -2.5 -3l-1.5 -2q-34 -34 -92 -34h-50q-74 0 -111 37l-1 2q-34 -39 -96 -39h-127v73h129q52 0 52 55v336q0 14 13 14h47q14 0 14 -14v-350q0 -17 8 -25
q16 -16 59 -16h64q53 0 53 55v310q0 13 13 13h47q13 0 13 -13v-324q0 -17 8 -25q18 -16 60 -16h63q54 0 54 55v336q0 14 13 14h47q13 0 13 -14v-336zM374 596q-13 0 -13 13v59q0 14 13 14h49q14 0 14 -14v-59q0 -13 -14 -13h-49zM494 668q0 14 13 14h50q14 0 14 -14v-59
q0 -13 -14 -13h-50q-13 0 -13 13v59zM441 721q-13 0 -13 13v59q0 13 13 13h49q13 0 13 -13v-59q0 -13 -13 -13h-49z" />
    <glyph glyph-name="SadFinl" unicode="&#x635;" horiz-adv-x="1042" arabic-form="final" 
d="M773 73q50 0 73.5 23.5t23.5 73.5v96q0 53 -20 93q-33 65 -111 65q-61 0 -138 -55.5t-119 -109.5v-186h291zM944 128q0 -27 19 -41t48 -14h47v-73h-34q-63 0 -105 40q-2 2 -6 7t-6 7q-45 -54 -134 -54h-295q-14 -75 -74 -125q-60 -51 -138 -51q-91 0 -154 63t-63 154v235
q0 14 13 14h47q13 0 13 -14v-235q0 -59 42.5 -101.5t101.5 -42.5q58 0 100 42.5t42 101.5v410q0 13 14 13h46q14 0 14 -13v-93q150 139 257 139q95 0 150 -64.5t55 -166.5v-138z" />
    <glyph glyph-name="SadInit" unicode="&#x635;" horiz-adv-x="761" arabic-form="initial" 
d="M513 73q50 0 73.5 23.5t23.5 73.5v96q0 54 -21 93q-33 65 -111 65q-49 0 -127 -49q-75 -47 -130 -116v-186h292zM683 170q0 -80 -45.5 -125t-124.5 -45h-523v73h157v378q0 13 15 13h46q13 0 13 -13v-93q148 139 257 139q96 0 150.5 -64t54.5 -167v-96z" />
    <glyph glyph-name="SadMedi" unicode="&#x635;" horiz-adv-x="782" arabic-form="medial" 
d="M513 73q50 0 73 23.5t23 73.5v96q0 53 -20 93q-33 65 -111 65q-100 0 -257 -165v-186h292zM683 128q0 -27 19 -41t48 -14h47v-73h-34q-74 0 -117 54q-45 -54 -133 -54h-523v73h157v378q0 13 14 13h47q13 0 13 -13v-93q150 139 257 139q95 0 150 -64.5t55 -166.5v-138z
" />
    <glyph glyph-name="DadFinl" unicode="&#x636;" horiz-adv-x="1043" arabic-form="final" 
d="M676 596q-13 0 -13 13v59q0 14 13 14h49q14 0 14 -14v-59q0 -13 -14 -13h-49zM773 73q50 0 73.5 23.5t23.5 73.5v96q0 55 -19 93q-33 65 -112 65q-49 0 -127 -49q-75 -47 -130 -116v-186h291zM944 128q0 -27 19 -41t48 -14h47v-73h-34q-63 0 -105 40q-7 7 -12 14
q-45 -54 -134 -54h-295q-14 -75 -74 -125q-60 -51 -138 -51q-91 0 -154 63t-63 154v235q0 14 13 14h47q14 0 14 -14v-235q0 -60 42 -102t101 -42q58 0 100.5 42.5t42.5 101.5v410q0 13 13 13h47q13 0 13 -13v-93q148 139 257 139q95 0 150 -64.5t55 -166.5v-138z" />
    <glyph glyph-name="DadInit" unicode="&#x636;" horiz-adv-x="761" arabic-form="initial" 
d="M415 596q-13 0 -13 13v59q0 14 13 14h49q14 0 14 -14v-59q0 -13 -14 -13h-49zM513 73q50 0 73 23.5t23 73.5v96q0 53 -20 93q-33 65 -111 65q-49 0 -127 -49q-75 -47 -130 -116v-186h292zM683 170q0 -80 -45.5 -125t-124.5 -45h-523v73h157v378q0 13 14 13h47
q13 0 13 -13v-93q149 139 257 139q95 0 150 -64.5t55 -166.5v-96z" />
    <glyph glyph-name="DadMedi" unicode="&#x636;" horiz-adv-x="782" arabic-form="medial" 
d="M415 596q-13 0 -13 13v59q0 14 13 14h49q14 0 14 -14v-59q0 -13 -14 -13h-49zM513 73q50 0 73.5 23.5t23.5 73.5v96q0 54 -21 93q-33 65 -111 65q-62 0 -137.5 -55t-119.5 -110v-186h292zM683 128q0 -27 19 -41t48 -14h47v-73h-34q-82 0 -117 54q-45 -54 -133 -54h-523
v73h157v378q0 13 14 13h47q13 0 13 -13v-93q150 139 257 139q95 0 150 -64.5t55 -166.5v-138z" />
    <glyph glyph-name="TahFinl" unicode="&#x637;" horiz-adv-x="806" arabic-form="final" 
d="M537 73q50 0 73 23.5t23 73.5v96q0 53 -20 93q-32 65 -111 65q-49 0 -127 -49q-75 -47 -130 -116v-186h292zM707 128q0 -27 19 -41t48 -14h47v-73h-33q-64 0 -106 40q-7 7 -13 14q-45 -54 -132 -54h-475q-13 0 -13 14v46q0 13 13 13h110v636q0 14 13 14h47q13 0 13 -14
v-351q149 139 257 139q95 0 150 -64.5t55 -166.5v-138z" />
    <glyph glyph-name="TahInit" unicode="&#x637;" horiz-adv-x="761" arabic-form="initial" 
d="M513 73q50 0 73.5 23.5t23.5 73.5v96q0 53 -20 93q-33 65 -112 65q-49 0 -127 -49q-75 -47 -130 -116v-186h292zM683 170q0 -80 -45.5 -125t-124.5 -45h-523v73h157v636q0 14 15 14h46q13 0 13 -14v-351q150 139 257 139q96 0 150.5 -64t54.5 -167v-96z" />
    <glyph glyph-name="TahMedi" unicode="&#x637;" horiz-adv-x="782" arabic-form="medial" 
d="M513 73q50 0 73 23.5t23 73.5v96q0 53 -20 93q-32 65 -110 65q-50 0 -128 -49q-75 -47 -130 -116v-186h292zM683 128q0 -27 19 -41t48 -14h47v-73h-35q-62 0 -104 40q-1 1 -2.5 3t-4.5 5t-5 6q-45 -54 -133 -54h-523v73h158v636q0 14 13 14h47q13 0 13 -14v-351
q149 139 258 139q95 0 149.5 -64.5t54.5 -166.5v-138z" />
    <glyph glyph-name="ZahFinl" unicode="&#x638;" horiz-adv-x="806" arabic-form="final" 
d="M439 596q-13 0 -13 13v59q0 14 13 14h49q14 0 14 -14v-59q0 -13 -14 -13h-49zM537 73q50 0 73 23.5t23 73.5v96q0 53 -20 93q-32 65 -111 65q-62 0 -137.5 -55t-119.5 -110v-186h292zM707 128q0 -27 19 -41t48 -14h47v-73h-34q-63 0 -105 40q-7 7 -13 14
q-45 -54 -132 -54h-475q-13 0 -13 14v46q0 13 13 13h109v636q0 13 14 13h47q13 0 13 -13v-351q150 139 257 139q95 0 150 -65t55 -166v-138z" />
    <glyph glyph-name="ZahInit" unicode="&#x638;" horiz-adv-x="761" arabic-form="initial" 
d="M415 596q-13 0 -13 13v59q0 14 13 14h49q14 0 14 -14v-59q0 -13 -14 -13h-49zM513 73q50 0 73.5 23.5t23.5 73.5v96q0 54 -21 93q-33 65 -111 65q-49 0 -127 -49q-75 -47 -130 -116v-186h292zM683 170q0 -80 -45.5 -125t-124.5 -45h-523v73h157v636q0 14 15 14h46
q13 0 13 -14v-351q150 139 257 139q96 0 150.5 -64t54.5 -167v-96z" />
    <glyph glyph-name="ZahMedi" unicode="&#x638;" horiz-adv-x="782" arabic-form="medial" 
d="M415 596q-14 0 -14 13v59q0 14 14 14h49q14 0 14 -14v-59q0 -13 -14 -13h-49zM512 73q50 0 73.5 23.5t23.5 73.5v96q0 53 -20 93q-33 65 -111 65q-61 0 -138 -55.5t-119 -109.5v-186h291zM683 128q0 -27 19 -41t48 -14h46l1 -73h-34q-63 0 -105 40q-7 7 -12 14
q-45 -54 -134 -54h-522v73h157v636q0 13 14 13h47q13 0 13 -13v-351q150 139 257 139q95 0 150 -64.5t55 -166.5v-138z" />
    <glyph glyph-name="AinFinl" unicode="&#x639;" horiz-adv-x="697" arabic-form="final" 
d="M391 424q-51 0 -94.5 -37t-54.5 -84l107 -230h84l108 231q-7 47 -52 84q-45 36 -98 36zM49 -87q0 68 41 114t106 46h72l-98 209q-3 9 -3 16v5q10 72 73 132q68 62 151 62q86 0 151 -58q67 -59 73 -138v-4q0 -7 -3 -15l-98 -209h198v-73h-516q-34 0 -54 -25t-20 -62
q0 -36 26 -62t62 -26h86q14 0 14 -13v-47q0 -13 -14 -13h-86q-67 0 -114 47t-47 114z" />
    <glyph glyph-name="AinInit" unicode="&#x639;" horiz-adv-x="658" arabic-form="initial" 
d="M230 177q0 -42 24 -73t61 -31h252q13 0 13 -13v-47q0 -13 -13 -13h-577v73h197q-30 48 -30 104v109q0 88 62 150t149 62q68 0 122 -39q54 -38 68 -95l4 -23q0 -1 0.5 -2.5t0.5 -2.5q0 -8 -10 -11l-46 -11h-5q-9 0 -11 11l-5 22q-7 32 -42.5 54.5t-75.5 22.5
q-56 0 -97 -40.5t-41 -97.5v-109z" />
    <glyph glyph-name="AinMedi" unicode="&#x639;" horiz-adv-x="655" arabic-form="medial" 
d="M345 424q-51 0 -97 -38q-42 -37 -52 -83l107 -230h85l107 231q-8 50 -52 84q-44 36 -98 36zM675 73v-73h-685v73h232l-98 209q-3 8 -3 16v5q11 76 73 132q68 63 151 63q84 0 151 -59q65 -58 73 -138v-4q0 -7 -3 -15l-98 -209h207z" />
    <glyph glyph-name="GhainFinl" unicode="&#x63a;" horiz-adv-x="697" arabic-form="final" 
d="M391 424q-53 0 -97 -39q-42 -36 -52 -82l107 -230h84l109 231q-9 47 -53 84q-45 36 -98 36zM49 -87q0 68 41.5 114t106.5 46h71l-98 209q-3 8 -3 17v4q11 74 73 132q68 62 151 62q86 0 151 -58q67 -59 74 -138v-4q0 -5 -4 -15l-97 -209h202v-73h-520q-34 0 -54 -24.5
t-20 -62.5q0 -36 25.5 -62t61.5 -26h86q14 0 14 -13v-47q0 -13 -14 -13h-86q-67 0 -114 47t-47 114zM372 596q-13 0 -13 13v59q0 14 13 14h49q14 0 14 -14v-59q0 -13 -14 -13h-49z" />
    <glyph glyph-name="GhainInit" unicode="&#x63a;" horiz-adv-x="644" arabic-form="initial" 
d="M217 177q0 -42 23.5 -73t61.5 -31h251q13 0 13 -13v-47q0 -13 -13 -13h-563v73h183q-29 46 -29 104v109q0 89 61 150q62 62 149 62q68 0 122 -38.5t68 -94.5l5 -23q0 -1 1 -3v-2q0 -8 -10 -11l-46 -12h-5q-7 0 -10 10l-6 23q-9 33 -43 55t-76 22q-57 0 -97 -40.5
t-40 -97.5v-109zM317 596q-13 0 -13 13v59q0 14 13 14h49q13 0 13 -14v-59q0 -13 -13 -13h-49z" />
    <glyph glyph-name="GhainMedi" unicode="&#x63a;" horiz-adv-x="669" arabic-form="medial" 
d="M345 424q-52 0 -95 -36.5t-54 -84.5l107 -230h85l107 231q-8 50 -52 84q-44 36 -98 36zM689 73v-73h-699v73h232l-98 209q-3 8 -3 15v6q10 74 73 132q68 63 151 63q85 0 152 -59q66 -59 72 -138v-4q0 -7 -3 -15l-97 -209h220zM326 596q-13 0 -13 13v59q0 14 13 14h49
q14 0 14 -14v-59q0 -13 -14 -13h-49z" />
    <glyph glyph-name="FehFinl" unicode="&#x641;" horiz-adv-x="1160" arabic-form="final" 
d="M779 596q-13 0 -13 13v59q0 14 13 14h49q13 0 13 -14v-59q0 -13 -13 -13h-49zM816 424q-56 0 -97 -41t-41 -97v-75q0 -56 41 -97t97 -41h137v213q0 56 -40.5 97t-96.5 41zM123 216q0 -58 42.5 -100.5t100.5 -42.5h390q-52 61 -52 138v75q0 86 63 149q62 62 149 62
t149 -62t62 -149v-213h173v-73h-934q-90 0 -153 63q-64 64 -64 153q0 62 33 116t88 82l21 11q2 1 5 1q10 0 13 -7l21 -42q1 -2 1 -5q0 -10 -7 -13l-21 -10q-34 -17 -57 -53t-23 -80z" />
    <glyph glyph-name="FehInit" unicode="&#x641;" horiz-adv-x="656" arabic-form="initial" 
d="M229 211q0 -56 41 -97t97 -41h138v213q0 57 -40.5 97.5t-97.5 40.5t-97.5 -41t-40.5 -97v-75zM578 37q0 -15 -11 -26t-26 -11h-551v73h217q-51 60 -51 138v75q0 88 62 150t149 62t149 -62t62 -150v-249zM330 596q-13 0 -13 13v59q0 14 13 14h49q14 0 14 -14v-59
q0 -13 -14 -13h-49z" />
    <glyph glyph-name="FehMedi" unicode="&#x641;" horiz-adv-x="705" arabic-form="medial" 
d="M330 596q-14 0 -14 13v59q0 14 14 14h49q14 0 14 -14v-59q0 -13 -14 -13h-49zM367 424q-56 0 -97 -41t-41 -97v-75q0 -56 41 -97t97 -41h137v213q0 57 -40.5 97.5t-96.5 40.5zM729 73v-73h-739v73h217q-52 59 -52 138v75q0 87 62 149t150 62q87 0 149 -62t62 -149v-213
h151z" />
    <glyph glyph-name="QafFinl" unicode="&#x642;" horiz-adv-x="813" arabic-form="final" 
d="M329 211q0 -56 41 -97t97 -41h138v209q0 59 -40 100.5t-98 41.5q-56 0 -97 -40.5t-41 -96.5v-76zM481 -129q50 0 87 37t37 87v5h-138q-87 0 -149 62t-62 149v76q0 87 62 149t149 62q89 0 150 -63q61 -61 61 -153v-209h165v-73h-165v-5q0 -81 -58 -139q-59 -59 -139 -59
h-206q-89 0 -153 64q-63 63 -63 153v156q0 14 13 14h46q14 0 14 -14v-156q0 -59 42 -101t101 -42h206zM373 596q-14 0 -14 13v59q0 14 14 14h48q14 0 14 -14v-59q0 -13 -14 -13h-48zM506 596q-14 0 -14 13v59q0 14 14 14h49q13 0 13 -14v-59q0 -13 -13 -13h-49z" />
    <glyph glyph-name="QafInit" unicode="&#x642;" horiz-adv-x="642" arabic-form="initial" 
d="M259 596q-13 0 -13 13v59q0 14 13 14h50q13 0 13 -14v-59q0 -13 -13 -13h-50zM393 596q-14 0 -14 13v59q0 14 14 14h48q14 0 14 -14v-59q0 -13 -14 -13h-48zM216 211q0 -57 40.5 -97.5t97.5 -40.5h138v213q0 57 -40.5 97.5t-97.5 40.5t-97.5 -40.5t-40.5 -97.5v-75z
M564 37q0 -15 -10.5 -26t-25.5 -11h-538v73h203q-50 59 -50 138v75q0 89 61 150q62 62 150 62q87 0 149 -62q61 -61 61 -150v-249z" />
    <glyph glyph-name="QafMedi" unicode="&#x642;" horiz-adv-x="705" arabic-form="medial" 
d="M272 596q-13 0 -13 13v59q0 14 13 14h49q14 0 14 -14v-59q0 -13 -14 -13h-49zM406 596q-14 0 -14 13v59q0 14 14 14h49q13 0 13 -14v-59q0 -13 -13 -13h-49zM367 424q-56 0 -97 -41t-41 -97v-75q0 -56 41 -97t97 -41h137v213q0 56 -40.5 97t-96.5 41zM729 73v-73h-739v73
h217q-52 59 -52 138v75q0 87 62 149t150 62q87 0 149 -62t62 -149v-213h151z" />
    <glyph glyph-name="KafFinl" unicode="&#x643;" horiz-adv-x="828" arabic-form="final" 
d="M434 499q-15 0 -25.5 -10.5t-10.5 -24.5v-58h103q9 0 9 -10v-21q0 -9 -9 -9h-170q-9 0 -9 9v21q0 10 9 10h28v58q0 31 22 53t53 22q50 0 69 -45l3 -11q2 -2 2 -3t-2 -3q-2 -5 -4 -6l-20 -8q-1 -1 -4 -1q-6 0 -8 6l-5 10q-7 21 -31 21zM601 73q55 0 55 55v580q0 14 13 14
h46q14 0 14 -14v-594q0 -17 8 -25q16 -16 59 -16h52v-73h-39q-71 0 -110 37l-2 2q-3 -3 -3 -5q-34 -34 -92 -34h-337q-89 0 -152 63q-64 64 -64 153q0 62 33 116t88 82l21 11q2 1 5 1q8 0 12 -7l22 -42q2 -6 2 -7q0 -6 -8 -11l-21 -10q-35 -17 -58 -53t-23 -80
q0 -59 42 -101t101 -42h336z" />
    <glyph glyph-name="KafInit" unicode="&#x643;" horiz-adv-x="686" arabic-form="initial" 
d="M125 411q0 125 64.5 199t183.5 74h83q13 0 13 -13v-47q0 -13 -13 -13h-83q-156 0 -173 -163h187q96 0 159 -64q62 -63 62 -162v-95q0 -59 -34 -93t-93 -34h-491v73h490q55 0 55 54v95q0 68 -41 110.5t-107 42.5h-225q-15 0 -26 10.5t-11 25.5z" />
    <glyph glyph-name="KafMedi" unicode="&#x643;" horiz-adv-x="708" arabic-form="medial" 
d="M125 412q0 125 65 198.5t183 73.5h83q13 0 13 -13v-47q0 -14 -13 -14h-83q-156 0 -173 -162h186q96 0 159 -64t63 -162v-108q0 -18 9 -25q16 -16 59 -16h52v-73h-40q-72 0 -109 37l-2 2q-34 -39 -96 -39h-491v73h490q55 0 55 55v94q0 68 -41 110.5t-108 42.5h-224
q-16 0 -26.5 11t-10.5 26z" />
    <glyph glyph-name="LamFinl" unicode="&#x644;" horiz-adv-x="601" arabic-form="final" 
d="M122 41q0 -59 42.5 -101.5t101.5 -42.5t101 42t42 102v667q0 14 13 14h46q14 0 14 -14v-635h149v-73h-153q-15 -75 -74 -125q-60 -51 -138 -51q-90 0 -154 64q-63 63 -63 153v236q0 13 13 13h47q13 0 13 -13v-236z" />
    <glyph glyph-name="LamInit" unicode="&#x644;" horiz-adv-x="311" arabic-form="initial" 
d="M107 73q53 1 53 54v581q0 14 13 14h47q13 0 13 -14v-581q0 -58 -34.5 -92.5t-92.5 -34.5h-116v73h116h1z" />
    <glyph glyph-name="LamMedi" unicode="&#x644;" horiz-adv-x="337" arabic-form="medial" 
d="M112 73q53 0 53 55v580q0 14 13 14h47q13 0 13 -14v-594q0 -18 9 -25q16 -16 59 -16h51v-73h-39q-72 0 -111 39q-1 -2 -4 -5q-33 -34 -92 -34h-121v73h122z" />
    <glyph glyph-name="MeemFinl" unicode="&#x645;" horiz-adv-x="747" arabic-form="final" 
d="M437 424q-56 0 -97 -40.5t-41 -96.5v-213h138q57 0 97.5 40t40.5 97v76q0 56 -41 96.5t-97 40.5zM623 113q11 -40 65 -40h79v-73h-65q-81 0 -120 58q-61 -58 -145 -58h-247q-28 0 -47.5 -19.5t-19.5 -47.5v-135q0 -13 -14 -13h-47q-13 0 -13 13v135q0 58 41.5 99.5
t99.5 41.5h36v213q0 87 62 149t149 62q86 0 148 -62t62 -149v-76q0 -51 -24 -98z" />
    <glyph glyph-name="MeemInit" unicode="&#x645;" horiz-adv-x="654" arabic-form="initial" 
d="M365 73q56 0 97 41t41 97v75q0 56 -41 97t-97 41t-96.5 -41t-40.5 -97v-213h137zM365 497q88 0 150 -62t62 -149v-75q0 -87 -62 -149t-150 -62h-375v73h164v213q0 87 62 149t149 62z" />
    <glyph glyph-name="MeemMedi" unicode="&#x645;" horiz-adv-x="686" arabic-form="medial" 
d="M375 424q-57 0 -97.5 -41t-40.5 -97v-213h138q57 0 97.5 40.5t40.5 97.5v75q0 57 -40.5 97.5t-97.5 40.5zM562 113q10 -40 64 -40h75v-73h-61q-81 0 -120 58q-61 -58 -145 -58h-385v73h174v213q0 88 62 150t149 62t149 -62t62 -150v-75q0 -51 -24 -98z" />
    <glyph glyph-name="NoonFinl" unicode="&#x646;" horiz-adv-x="604" arabic-form="final" 
d="M265 -103q59 0 101.5 42.5t42.5 101.5v423q0 14 13 14h46q14 0 14 -14v-391h151v-73h-155q-15 -77 -74 -125q-60 -51 -139 -51q-89 0 -153 64q-63 63 -63 153v236q0 13 13 13h47q13 0 13 -13v-236q0 -59 42 -101.5t101 -42.5zM227 510q-13 0 -13 13v59q0 13 13 13h49
q14 0 14 -13v-59q0 -13 -14 -13h-49z" />
    <glyph glyph-name="NoonInit" unicode="&#x646;" horiz-adv-x="346" arabic-form="initial" 
d="M255 682q14 0 14 -14v-59q0 -13 -14 -13h-49q-13 0 -13 13v59q0 14 13 14h49zM142 73q52 1 52 54v337q0 14 14 14h46q14 0 14 -14v-337q0 -58 -35 -92.5t-93 -34.5h-150v73h152z" />
    <glyph glyph-name="NoonMedi" unicode="&#x646;" horiz-adv-x="367" arabic-form="medial" 
d="M142 73q52 0 52 55v336q0 14 14 14h46q14 0 14 -14v-350q0 -17 8 -25q16 -16 59 -16h47v-73h-34q-73 0 -110 37l-2 2q0 -2 -3 -5q-34 -34 -93 -34h-150v73h152zM206 596q-13 0 -13 13v59q0 14 13 14h49q14 0 14 -14v-59q0 -13 -14 -13h-49z" />
    <glyph glyph-name="HehFinl" unicode="&#x647;" horiz-adv-x="593" arabic-form="final" 
d="M122 211q0 -57 40.5 -97.5t96.5 -40.5h138v213q0 57 -40.5 97.5t-97.5 40.5q-56 0 -96.5 -40.5t-40.5 -97.5v-75zM628 73v-73h-369q-87 0 -149 62q-61 61 -61 149v75q0 89 61 150q62 62 149 62q88 0 150 -62t62 -150v-213h157z" />
    <glyph glyph-name="HehInit" unicode="&#x647;" horiz-adv-x="786" arabic-form="initial" 
d="M489 73q60 0 103 43t43 103v95q0 59 -43.5 102.5t-102.5 43.5q-75 0 -119 -62q49 -16 81.5 -58.5t32.5 -98.5v-168h5zM229 159q0 -35 25 -60.5t60 -25.5h97v168q0 38 -27 65t-64 27t-64 -27t-27 -65v-82zM489 534q90 0 155 -65q64 -64 64 -155v-95q0 -91 -64 -155
t-155 -64h-499v73h191q-26 40 -26 86v82q0 61 38.5 106t94.5 56q25 56 78.5 93.5t122.5 37.5z" />
    <glyph glyph-name="HehMedi" unicode="&#x647;" horiz-adv-x="708" arabic-form="medial" 
d="M369 -143q56 0 97 41t41 97v42q0 11 6 20q-60 -57 -144 -57h-138v-5q0 -56 41 -97t97 -41zM369 423q-56 0 -97 -40.5t-41 -96.5v-213h138q57 0 97.5 40.5t40.5 97.5v75q0 57 -40.5 97t-97.5 40zM728 73v-73h-148v-5q0 -88 -61 -149q-62 -62 -150 -62q-87 0 -149 62
t-62 149v5h-168v73h168v213q0 87 62 149t149 62q88 0 150 -62q61 -61 61 -149v-75q0 -83 -56 -144q9 6 19 6h185z" />
    <glyph glyph-name="WawFinl" unicode="&#x648;" horiz-adv-x="617" arabic-form="final" 
d="M142 211q0 -56 41 -97t97 -41h137v213q0 56 -40.5 97t-96.5 41t-97 -41t-41 -97v-75zM294 -135q50 0 86.5 36.5t36.5 86.5v12h-137q-88 0 -150 62t-62 149v75q0 87 62 149t150 62q87 0 149 -62t62 -149v-213h151v-73h-151v-12q0 -79 -59 -138q-58 -58 -138 -58h-104
q-13 0 -13 13v47q0 13 13 13h104z" />
    <glyph glyph-name="AlefMaqsuraFinl" unicode="&#x649;" horiz-adv-x="1011" arabic-form="final" 
d="M122 100q0 -59 42 -101.5t101 -42.5h313v375q0 70 48 118q48 49 118 49q68 0 117 -49t49 -118v-258h126v-73h-162q-15 0 -26 11t-11 26v294q0 38 -27.5 65.5t-65.5 27.5t-65.5 -27.5t-27.5 -65.5v-411q0 -15 -11 -26t-26 -11h-351q-87 0 -151 63q-63 63 -63 154
q0 66 34.5 118.5t85.5 78.5l21 11q4 2 6 2q8 0 12 -8l21 -41q2 -6 2 -8q0 -6 -7 -10l-21 -11q-35 -18 -58 -53t-23 -79z" />
    <glyph glyph-name="YehFinl" unicode="&#x64a;" horiz-adv-x="1011" arabic-form="final" 
d="M122 99q0 -59 42 -101t101 -42h313v375q0 70 48 117q48 49 118 49q68 0 117 -49q49 -48 49 -117v-258h126v-73h-162q-15 0 -26 11t-11 26v294q0 38 -27.5 65.5t-65.5 27.5t-65.5 -27.5t-27.5 -65.5v-412q0 -15 -11 -25.5t-26 -10.5h-351q-87 0 -151 63q-63 63 -63 153
q0 66 34.5 119t85.5 79l21 11q2 1 6 1q8 0 12 -7l21 -42q2 -6 2 -7q0 -7 -7 -11l-21 -11q-34 -18 -57.5 -53t-23.5 -79zM349 -212q13 0 13 -14v-59q0 -13 -13 -13h-50q-13 0 -13 13v59q0 14 13 14h50zM482 -212q13 0 13 -14v-59q0 -13 -13 -13h-49q-14 0 -14 13v59
q0 14 14 14h49z" />
    <glyph glyph-name="YehInit" unicode="&#x64a;" horiz-adv-x="350" arabic-form="initial" 
d="M106 -95q14 0 14 -14v-58q0 -14 -14 -14h-49q-13 0 -13 14v58q0 14 13 14h49zM240 -95q13 0 13 -14v-58q0 -14 -13 -14h-50q-13 0 -13 14v58q0 14 13 14h50zM272 127q0 -58 -34.5 -92.5t-92.5 -34.5h-155v73h156q53 1 53 54v337q0 14 13 14h47q13 0 13 -14v-337z" />
    <glyph glyph-name="YehMedi" unicode="&#x64a;" horiz-adv-x="367" arabic-form="medial" 
d="M142 73q52 0 52 55v336q0 14 14 14h46q14 0 14 -14v-350q0 -17 8 -25q16 -16 59 -16h47v-73h-34q-73 0 -110 37l-2 2q0 -2 -3 -5q-34 -34 -93 -34h-150v73h152zM143 -95q13 0 13 -14v-58q0 -14 -13 -14h-50q-13 0 -13 14v58q0 14 13 14h50zM276 -95q14 0 14 -14v-58
q0 -14 -14 -14h-49q-14 0 -14 14v58q0 14 14 14h49z" />
    <glyph glyph-name=".notdef" horiz-adv-x="500" 
d="M49 0v700h402v-700h-402zM73 24h354v652h-354v-652zM159 561q39 35 83 35q43 0 71 -22.5t28 -62.5q0 -23 -11 -48q-8 -18 -48.5 -72t-42.5 -56q-17 -24 -17 -48q0 -22 11 -65h-15q-17 49 -17 72q0 40 39 106q40 68 40 106q0 28 -16 44t-44 16t-61 -27v22zM228 196
q5 0 10 -5l28 -29q4 -5 4 -10q0 -4 -5 -11l-27 -30q-7 -7 -10 -7q-5 0 -10 5l-30 35q-3 4 -3 8q0 6 5 11l28 28q7 5 10 5z" />
    <glyph glyph-name=".null" 
 />
    <glyph glyph-name="nonmarkingreturn" horiz-adv-x="248" 
 />
    <glyph glyph-name="space" unicode=" " horiz-adv-x="248" 
 />
    <glyph glyph-name="space" unicode="&#xa0;" horiz-adv-x="248" 
 />
    <glyph glyph-name="exclam" unicode="!" horiz-adv-x="200" 
d="M109 722q14 0 14 -13v-522q0 -14 -14 -14h-47q-13 0 -13 14v522q0 13 13 13h47zM113 83q10 0 10 -10v-64q0 -9 -10 -9h-54q-10 0 -10 9v64q0 10 10 10h54z" />
    <glyph glyph-name="quotedbl" unicode="&#x22;" horiz-adv-x="419" 
d="M338 693q0 -1 -2 -7l-58 -140q-3 -8 -12 -8q-3 0 -5 1l-43 18q-9 3 -9 10q0 5 1 7l59 140q3 8 12 8q3 0 5 -1l43 -18q9 -3 9 -10zM182 693q0 -1 -2 -7l-58 -140q-3 -8 -13 -8q-3 0 -5 1l-42 18q-9 3 -9 10q0 5 1 7l58 140q5 8 13 8q3 0 5 -1l43 -18q9 -3 9 -10z" />
    <glyph glyph-name="numbersign" unicode="#" horiz-adv-x="718" 
d="M421 439h-125l-27 -148h126zM631 513q14 0 14 -13v-47q0 -14 -14 -14h-135l-26 -148h130q14 0 14 -14v-46q0 -13 -14 -13h-144l-38 -207q-2 -11 -12 -11h-3l-46 9q-11 2 -11 12v1l1 2l34 194h-125l-37 -207q-2 -11 -13 -11h-3l-45 9q-12 1 -12 12v3l36 194h-120
q-13 0 -13 13v46q0 14 13 14h132l28 148h-129q-13 0 -13 14v47q0 13 13 13h142l35 197q2 12 13 12h3l46 -9q11 -2 11 -12v-3l-34 -185h126l36 197q2 12 12 12h3l46 -9q11 -1 11 -11v-4l-33 -185h121z" />
    <glyph glyph-name="dollar" unicode="$" horiz-adv-x="454" 
d="M303 263q0 7 -15 40q-15 17 -38 20v-177q53 24 53 82v35zM123 457q0 -23 15 -40t38 -20v175q-53 -24 -53 -82v-33zM250 649q53 -12 89.5 -56t36.5 -103v-24q0 -13 -13 -13h-47q-13 0 -13 13v24q0 58 -53 82v-176q52 -3 89 -41.5t37 -91.5v-35q0 -59 -36.5 -103.5
t-89.5 -56.5v-55q0 -13 -14 -13h-47q-13 0 -13 13v55q-53 12 -90 56.5t-37 103.5v23q0 13 13 13h47q14 0 14 -13v-23q0 -58 53 -82v178q-52 2 -89.5 41t-37.5 92v33q0 59 37 102.5t90 56.5v60q0 14 13 14h47q14 0 14 -14v-60z" />
    <glyph glyph-name="percent" unicode="%" horiz-adv-x="619" 
d="M170 640q-17 0 -29.5 -12.5t-12.5 -29.5v-106q0 -17 12.5 -29.5t29.5 -12.5t29.5 12.5t12.5 29.5v106q0 17 -12.5 29.5t-29.5 12.5zM170 713q47 0 81 -34t34 -81v-106q0 -47 -34 -81t-81 -34t-81 34t-34 81v106q0 47 34 81t81 34zM508 687q0 -3 -2 -7l-352 -672
q-5 -8 -10 -8q-2 0 -8 2l-41 22q-7 3 -7 12q0 4 1 6l353 672q5 8 10 8q1 0 7 -2l42 -22q7 -2 7 -11zM426 82q17 0 29.5 12.5t12.5 29.5v106q0 17 -12.5 29t-29.5 12t-29.5 -12t-12.5 -29v-106q0 -17 12.5 -29.5t29.5 -12.5zM311 230q0 47 34 81t81 34t81 -34t34 -81v-106
q0 -47 -34 -81t-81 -34t-81 34t-34 81v106z" />
    <glyph glyph-name="ampersand" unicode="&#x26;" horiz-adv-x="705" 
d="M123 221q0 -57 40.5 -97.5t96.5 -40.5t97 41l7 7l-177 212l-24 -24q-40 -40 -40 -98zM156 626q-31 -26 -31 -66q0 -31 21 -55l80 -96l13 -13v-1l178 -212l149 150q3 3 9 3t9 -3l34 -34q5 -5 5 -9q0 -5 -5 -10l-154 -153l62 -74q4 -6 4 -10q-2 -7 -5 -9l-36 -30
q-4 -4 -9 -4q-4 0 -9 6l-59 69l-3 -3q-62 -62 -149 -62t-149 62t-62 149q0 88 62 150l28 28l-50 59q-36 44 -36 100q0 77 56 124l2 2q0 1 1 1q44 36 99 36q74 0 122 -54q1 0 3 -4q38 -46 38 -101q0 -13 -1 -20l-3 -23q-2 -12 -12 -12h-3l-46 6q-12 1 -12 12v2l3 24q1 4 1 12
q0 35 -26 60t-62 25q-30 0 -55 -20z" />
    <glyph glyph-name="quotesingle" unicode="'" horiz-adv-x="263" 
d="M109 537q-3 0 -5 1l-43 18q-9 4 -9 11q0 2 2 6l58 140q4 9 13 9q2 0 4 -1l43 -18q9 -3 9 -11q0 -4 -1 -6l-59 -141q-4 -8 -12 -8z" />
    <glyph glyph-name="parenleft" unicode="(" horiz-adv-x="385" 
d="M266 -68q-6 0 -10 3l-18 14q-189 141 -189 411t189 411l18 14q6 4 9 4q5 0 10 -7l28 -37q3 -3 3 -7q0 -8 -6 -11l-18 -15q-160 -120 -160 -352t160 -352l18 -14q6 -4 6 -9v-3q0 -4 -3 -7l-28 -37q-5 -6 -9 -6z" />
    <glyph glyph-name="parenright" unicode=")" horiz-adv-x="385" 
d="M50 -17v2q0 6 5 9l19 14q159 120 159 352t-159 352l-19 15q-5 3 -5 8v2q0 5 3 8l28 37q5 7 10 7q2 0 8 -4l19 -14q189 -141 189 -411t-189 -411l-19 -14q-5 -3 -9 -3t-9 6l-28 37q-3 3 -3 8z" />
    <glyph glyph-name="asterisk" unicode="*" horiz-adv-x="437" 
d="M359 602q0 -8 -8 -13l-104 -45l80 -111q3 -5 3 -8q0 -6 -7 -10l-24 -18q-5 -3 -8 -3q-5 0 -10 6l-77 107l-76 -107q-3 -3 -9 -5h-2q-5 0 -8 2l-24 18q-6 4 -6 9q0 3 4 9l79 111l-104 45q-8 4 -8 12q0 4 1 6l12 27q4 8 11 8q5 0 7 -1l95 -42v111q0 14 14 14h29
q13 0 13 -14v-111l97 42q2 1 6 1q7 0 11 -8l12 -27q1 -2 1 -5z" />
    <glyph glyph-name="plus" unicode="+" horiz-adv-x="551" 
d="M460 393q14 0 14 -14v-46q0 -14 -14 -14h-162v-162q0 -13 -13 -13h-47q-13 0 -13 13v162h-163q-13 0 -13 14v46q0 14 13 14h163v162q0 13 13 13h47q13 0 13 -13v-162h162z" />
    <glyph glyph-name="comma" unicode="," horiz-adv-x="262" 
d="M109 -93q-3 0 -5 1l-43 18q-9 3 -9 11q0 2 2 6l58 140q3 8 12 8q3 0 5 -1l43 -17q9 -5 9 -11q0 -1 -2 -7l-57 -140q-3 -8 -13 -8z" />
    <glyph glyph-name="hyphen" unicode="-" horiz-adv-x="444" 
d="M367 332q0 -14 -13 -14h-292q-13 0 -13 14v46q0 14 13 14h292q13 0 13 -14v-46z" />
    <glyph glyph-name="period" unicode="." horiz-adv-x="200" 
d="M123 9q0 -9 -10 -9h-54q-10 0 -10 9v64q0 10 10 10h54q10 0 10 -10v-64z" />
    <glyph glyph-name="slash" unicode="/" horiz-adv-x="460" 
d="M109 0q-5 0 -7 1l-43 17q-9 4 -9 12q0 3 1 5l261 692q3 9 11 9q4 0 6 -1l44 -17q8 -2 8 -12q0 -3 -1 -5l-260 -692q-3 -9 -11 -9z" />
    <glyph glyph-name="zero" unicode="0" horiz-adv-x="539" 
d="M255 648q-55 0 -94 -38.5t-39 -93.5v-309q0 -55 39 -94.5t94 -39.5t94 39.5t39 94.5v309q0 54 -39.5 93t-93.5 39zM49 516q0 85 60 145q61 61 146 61t146 -61q60 -60 60 -145v-309q0 -86 -60 -146q-61 -61 -146 -61t-146 61q-60 60 -60 146v309z" />
    <glyph glyph-name="one" unicode="1" horiz-adv-x="372" 
d="M225 722q29 0 49 -20t20 -49v-640q0 -13 -13 -13h-47q-14 0 -14 13v635h-158q-13 0 -13 14v46q0 14 13 14h163z" />
    <glyph glyph-name="two" unicode="2" horiz-adv-x="540" 
d="M164 272q-17 0 -29.5 -12t-12.5 -29v-158h307q13 0 13 -13v-47q0 -13 -13 -13h-311q-28 0 -48.5 20t-20.5 49v162q0 47 34 81t81 34h131q38 0 66 27t28 65v77q0 54 -40 93.5t-94 39.5q-55 0 -94 -39t-39 -94v-23q0 -13 -13 -13h-47q-13 0 -13 13v23q0 86 60 146
q61 61 146 61t146 -61q61 -60 61 -146v-77q0 -68 -49 -117t-118 -49h-131z" />
    <glyph glyph-name="three" unicode="3" horiz-adv-x="539" 
d="M255 648q-55 0 -93.5 -39t-38.5 -94v-23q0 -13 -14 -13h-47q-13 0 -13 13v23q0 87 60 147t146 60t146 -60t60 -147v-11q0 -81 -62 -130q62 -50 62 -130v-37q0 -86 -60 -146q-61 -61 -146 -61t-146 61q-60 60 -60 146v22q0 14 13 14h47q14 0 14 -14v-22q0 -55 38.5 -94.5
t93.5 -39.5t94 39.5t39 94.5v37q0 38 -27.5 65.5t-65.5 27.5h-97q-15 0 -25.5 11t-10.5 26t10.5 25.5t25.5 10.5h97q38 0 65.5 27.5t27.5 66.5v11q0 55 -39 94t-94 39z" />
    <glyph glyph-name="four" unicode="4" horiz-adv-x="637" 
d="M394 255v317l-230 -317h230zM429 722q18 0 28 -10t10 -26v-431h78q14 0 14 -13v-47q0 -13 -14 -13h-78v-169q0 -13 -12 -13h-48q-13 0 -13 13v169h-303q-15 0 -25.5 10.5t-10.5 26.5q0 11 7 21l339 467q11 15 28 15z" />
    <glyph glyph-name="five" unicode="5" horiz-adv-x="539" 
d="M49 653q0 29 20.5 49t48.5 20h291q13 0 13 -14v-46q0 -14 -13 -14h-287v-186h173q70 0 118 -48t48 -118v-89q0 -86 -60 -146q-61 -61 -146 -61t-146 61q-60 60 -60 146v22q0 14 13 14h47q13 0 13 -14v-22q0 -55 39 -94.5t94 -39.5t94 39.5t39 94.5v89q0 38 -27.5 65.5
t-65.5 27.5h-210q-15 0 -25.5 11t-10.5 26v227z" />
    <glyph glyph-name="six" unicode="6" horiz-adv-x="539" 
d="M255 73q55 0 94 39.5t39 94.5v89q0 38 -27.5 65.5t-65.5 27.5h-40q-55 0 -94 -39t-39 -94v-49q0 -55 39 -94.5t94 -39.5zM255 648q-55 0 -94 -39t-39 -94v-101q57 48 133 48h40q70 0 118 -48t48 -118v-89q0 -86 -60 -146q-61 -61 -146 -61t-146 61q-60 60 -60 146v308
q0 86 60 146q61 61 146 61q82 0 141 -56q59 -55 65 -136q0 -15 -13 -15h-47q-11 0 -13 12q-5 50 -43 85.5t-90 35.5z" />
    <glyph glyph-name="seven" unicode="7" horiz-adv-x="534" 
d="M425 722q14 0 25.5 -10t11.5 -25q0 -9 -3 -16l-268 -663q-3 -8 -12 -8h-51q-13 0 -13 13q0 4 1 6l255 629h-309q-13 0 -13 14v46q0 14 13 14h363z" />
    <glyph glyph-name="eight" unicode="8" horiz-adv-x="539" 
d="M123 485q0 -38 27 -65.5t65 -27.5h80q38 0 65.5 27.5t27.5 65.5v31q0 55 -39 93.5t-94 38.5t-93.5 -38.5t-38.5 -93.5v-31zM255 73q55 0 94 39.5t39 94.5v18q0 38 -27.5 65.5t-65.5 27.5h-80q-38 0 -65 -27.5t-27 -65.5v-18q0 -55 38.5 -94.5t93.5 -39.5zM461 485
q0 -81 -62 -130q62 -49 62 -130v-18q0 -86 -60 -146q-61 -61 -146 -61t-146 61q-60 60 -60 146v18q0 80 62 130q-62 49 -62 130v31q0 86 60 146t146 60t146 -60t60 -146v-31z" />
    <glyph glyph-name="nine" unicode="9" horiz-adv-x="540" 
d="M123 426q0 -38 27 -65.5t65 -27.5h40q55 0 94 39t39 94v49q0 55 -39 94t-94 39t-93.5 -39t-38.5 -94v-89zM255 73q55 0 94 39.5t39 94.5v101q-56 -49 -133 -49h-40q-68 0 -117 49t-49 118v89q0 86 60 146q61 61 146 61t146 -61t61 -146v-308q0 -85 -61 -146t-146 -61
q-80 0 -141 56q-59 55 -65 136v1q0 5 4 9.5t9 4.5h47q12 0 14 -13q5 -50 42.5 -85.5t89.5 -35.5z" />
    <glyph glyph-name="colon" unicode=":" horiz-adv-x="200" 
d="M113 83q9 0 9 -10v-64q0 -9 -9 -9h-55q-9 0 -9 9v64q0 10 9 10h55zM113 471q9 0 9 -10v-64q0 -9 -9 -9h-55q-9 0 -9 9v64q0 10 9 10h55z" />
    <glyph glyph-name="semicolon" unicode=";" horiz-adv-x="262" 
d="M109 387q-8 0 -8 9v64q0 10 8 10h55q9 0 9 -10v-64q0 -9 -9 -9h-55zM109 -93q-3 0 -5 1l-43 18q-9 3 -9 11q0 2 2 6l58 140q3 8 12 8q3 0 5 -1l43 -17q9 -5 9 -11q0 -1 -2 -7l-57 -140q-3 -8 -13 -8z" />
    <glyph glyph-name="less" unicode="&#x3c;" horiz-adv-x="479" 
d="M364 143q-4 0 -8 3l-290 180q-17 11 -17 31t17 31l290 180q4 3 8 3q6 0 10 -7l25 -39q2 -4 2 -7q0 -9 -6 -12l-240 -149l240 -149q6 -3 6 -12q0 -3 -2 -7l-25 -39q-4 -7 -10 -7z" />
    <glyph glyph-name="equal" unicode="=" horiz-adv-x="504" 
d="M414 312q13 0 13 -13v-47q0 -13 -13 -13h-352q-13 0 -13 13v47q0 13 13 13h352zM414 472q13 0 13 -14v-46q0 -14 -13 -14h-352q-13 0 -13 14v46q0 14 13 14h352z" />
    <glyph glyph-name="greater" unicode="&#x3e;" horiz-adv-x="479" 
d="M50 197v3q1 5 6 8l239 149l-239 149q-5 3 -6 8v3q0 4 2 8l24 39q4 7 11 7q3 0 8 -3l289 -180q18 -10 18 -31t-18 -31l-289 -180q-5 -3 -8 -3q-7 0 -11 7l-24 39q-2 4 -2 8z" />
    <glyph glyph-name="question" unicode="?" horiz-adv-x="549" 
d="M260 648q-56 0 -96.5 -40t-40.5 -97v-24q0 -13 -14 -13h-47q-13 0 -13 13v24q0 87 62 149t149 62q88 0 150 -62t62 -149v-21q0 -70 -51 -120q-50 -50 -120 -50h-55q-31 0 -31 -43v-123q0 -13 -12 -13h-47q-14 0 -14 13v123q0 50 29 83.5t75 33.5h55q40 0 68.5 28t28.5 68
v21q0 56 -41 96.5t-97 40.5zM206 83q9 0 9 -10v-64q0 -9 -9 -9h-55q-9 0 -9 9v64q0 10 9 10h55z" />
    <glyph glyph-name="at" unicode="@" horiz-adv-x="690" 
d="M331 479q-31 0 -53.5 -22t-22.5 -53v-98q0 -31 22.5 -53.5t53.5 -22.5h76v174q0 31 -22.5 53t-53.5 22zM496 230q18 0 31 12.5t13 30.5v166q0 87 -61 148t-148 61t-148 -61t-61 -148v-157q0 -86 61 -147q62 -62 148 -62h169q14 0 14 -13v-47q0 -13 -14 -13h-169
q-117 0 -200 83q-82 82 -82 199v157q0 118 82 200q83 83 200 83q116 0 199 -83q82 -82 82 -200v-168q-1 -47 -34.5 -80.5t-81.5 -33.5h-165q-63 0 -106 43t-43 106v98q0 62 43 105q44 44 106 44q61 0 105 -44t44 -105v-174h16z" />
    <glyph glyph-name="A" unicode="A" horiz-adv-x="540" 
d="M255 649q-54 0 -93.5 -39.5t-39.5 -93.5v-157h266v157q0 54 -39.5 93.5t-93.5 39.5zM255 722q85 0 146 -61t61 -145v-503q0 -13 -14 -13h-46q-14 0 -14 13v272h-266v-272q0 -13 -13 -13h-47q-13 0 -13 13v503q0 85 60 145q61 61 146 61z" />
    <glyph glyph-name="B" unicode="B" horiz-adv-x="540" 
d="M255 73q55 0 94.5 39.5t39.5 94.5v32q0 37 -27.5 65t-65.5 28h-173v-259h132zM362 515q0 55 -39.5 94.5t-93.5 39.5h-106v-244h146q38 0 65.5 27.5t27.5 65.5v17zM49 653q0 29 20.5 49t48.5 20h111q85 0 146 -61q60 -60 60 -146v-17q0 -70 -50 -119q77 -50 77 -140v-32
q0 -85 -61 -146t-146 -61h-137q-28 0 -48.5 20.5t-20.5 48.5v584z" />
    <glyph glyph-name="C" unicode="C" horiz-adv-x="539" 
d="M255 73q55 0 94 39.5t39 94.5v22q0 14 13 14h47q13 0 13 -14v-22q0 -86 -60 -146q-61 -61 -146 -61t-146 61q-60 60 -60 146v308q0 87 60 147t146 60t146 -60q60 -62 60 -147v-23q0 -13 -13 -13h-47q-13 0 -13 13v23q0 55 -39 94t-94 39t-94 -39t-39 -94v-308
q0 -55 39 -94.5t94 -39.5z" />
    <glyph glyph-name="D" unicode="D" horiz-adv-x="540" 
d="M389 516q0 55 -39.5 93.5t-94.5 38.5h-132v-575h132q55 0 94.5 39.5t39.5 94.5v309zM49 653q0 28 20.5 48.5t48.5 20.5h163v-2q77 -9 129 -67t52 -137v-309q0 -85 -61 -146t-146 -61h-137q-28 0 -48.5 20t-20.5 49v584z" />
    <glyph glyph-name="E" unicode="E" horiz-adv-x="545" 
d="M49 653q0 28 20.5 48.5t48.5 20.5h325q13 0 13 -14v-46q0 -14 -13 -14h-320v-243h287q12 0 12 -13v-47q0 -13 -12 -13h-287v-259h331q13 0 13 -13v-47q0 -13 -13 -13h-336q-28 0 -48.5 20.5t-20.5 48.5v584z" />
    <glyph glyph-name="F" unicode="F" horiz-adv-x="647" 
d="M230 516q0 55 39 93.5t94 38.5q48 0 84.5 -30.5t45.5 -73.5q4 -22 4 -24v1q0 -9 13 -9h47q13 0 13 9q0 17 -5 40q-14 67 -73 115q-56 46 -129 46q-85 0 -145 -60q-61 -61 -61 -146v-111h-95q-13 0 -13 -13v-47q0 -13 13 -13h95v-319q0 -13 13 -13h47q13 0 13 13v319h313
q14 0 14 13v47q0 13 -14 13h-313v111z" />
    <glyph glyph-name="G" unicode="G" horiz-adv-x="540" 
d="M393 359q29 0 49 -20.5t20 -48.5v-83q0 -85 -61 -146t-146 -61q-83 0 -146 61q-60 60 -60 146v309q0 86 60 146q62 60 146 60q85 0 146 -60q61 -61 61 -146v-24q0 -13 -13 -13h-47q-13 0 -13 13v24q0 55 -39.5 93.5t-94.5 38.5t-94 -38.5t-39 -93.5v-309q0 -55 39 -94.5
t94 -39.5t94.5 39.5t39.5 94.5v78h-150q-14 0 -14 14v47q0 13 14 13h154z" />
    <glyph glyph-name="H" unicode="H" horiz-adv-x="566" 
d="M475 722q14 0 14 -14v-694q0 -14 -14 -14h-46q-14 0 -14 14v318h-293v-318q0 -14 -14 -14h-46q-13 0 -13 14v694q0 14 13 14h46q14 0 14 -14v-303h293v303q0 14 14 14h46z" />
    <glyph glyph-name="I" unicode="I" horiz-adv-x="219" 
d="M142 13q0 -13 -13 -13h-47q-14 0 -14 13v695q0 14 14 14h47q13 0 13 -14v-695z" />
    <glyph glyph-name="J" unicode="J" horiz-adv-x="539" 
d="M255 73q55 0 94 39.5t39 94.5v501q0 14 13 14h47q13 0 13 -14v-501q0 -86 -60 -146q-61 -61 -146 -61t-146 61q-60 60 -60 146v22q0 14 13 14h47q14 0 14 -14v-22q0 -55 38.5 -94.5t93.5 -39.5z" />
    <glyph glyph-name="K" unicode="K" horiz-adv-x="602" 
d="M508 722q14 0 14 -14q0 -6 -4 -9l-301 -288l291 -390q3 -5 3 -7q0 -14 -13 -14h-59q-7 0 -10 5l-265 355l-42 -41v-306q0 -13 -13 -13h-47q-13 0 -13 13v695q0 14 13 14h47q13 0 13 -14v-282l23 17l287 275q4 4 9 4h67z" />
    <glyph glyph-name="L" unicode="L" horiz-adv-x="476" 
d="M118 0q-28 0 -48.5 20t-20.5 49v639q0 14 13 14h47q14 0 14 -14v-635h291q13 0 13 -13v-47q0 -13 -13 -13h-296z" />
    <glyph glyph-name="M" unicode="M" horiz-adv-x="822" 
d="M241 648q-49 0 -84 -34.5t-35 -83.5v-516q0 -14 -13 -14h-47q-13 0 -13 14v516q0 80 56 136q55 56 136 56q103 0 155 -63q54 63 157 63q79 0 135 -56q57 -59 57 -136v-516q0 -14 -14 -14h-46q-14 0 -14 14v516q0 49 -34.5 83.5t-83.5 34.5q-42 0 -71 -13q-48 -23 -48 -79
v-542q0 -14 -14 -14h-46q-14 0 -14 14v542q0 55 -49 79q-29 13 -70 13z" />
    <glyph glyph-name="N" unicode="N" horiz-adv-x="630" 
d="M553 37q0 -16 -10 -26.5t-27 -10.5q-21 0 -31 16l-363 547v-550q0 -13 -13 -13h-47q-13 0 -13 13v673q0 16 10 26t28 10q19 0 29 -16l363 -548v550q0 14 14 14h46q14 0 14 -14v-671z" />
    <glyph glyph-name="O" unicode="O" horiz-adv-x="539" 
d="M255 648q-55 0 -93.5 -38.5t-38.5 -93.5v-309q0 -55 38.5 -94.5t93.5 -39.5t94 39.5t39 94.5v309q0 55 -39 93.5t-94 38.5zM49 516q0 86 60 146t146 60t146 -60t60 -146v-309q0 -86 -60 -146q-61 -61 -146 -61t-146 61q-60 60 -60 146v309z" />
    <glyph glyph-name="P" unicode="P" horiz-adv-x="566" 
d="M322 339q38 0 65.5 27.5t27.5 65.5v84q0 54 -39.5 93t-93.5 39h-160v-309h200zM49 653q0 29 20.5 49t48.5 20h189v-2q77 -9 129 -67t52 -137v-84q0 -69 -49 -118q-48 -48 -117 -48h-200v-252q0 -14 -13 -14h-47q-13 0 -13 14v639z" />
    <glyph glyph-name="Q" unicode="Q" horiz-adv-x="561" 
d="M123 207q0 -55 38.5 -94.5t93.5 -39.5q40 0 74 23l-70 69q-5 5 -5 10q0 4 5 9l33 33q5 5 10 5q4 0 9 -5l65 -65q12 24 12 55v309q0 54 -39.5 93.5t-93.5 39.5q-55 0 -93.5 -39t-38.5 -94v-309zM510 14q0 -14 -13 -14h-67q-6 0 -10 4l-39 39q-55 -43 -126 -43
q-85 0 -146 61q-60 60 -60 146v309q0 85 60 145q61 61 146 61t146 -61q60 -60 60 -145v-309q0 -61 -30 -108l75 -76q4 -4 4 -9z" />
    <glyph glyph-name="R" unicode="R" horiz-adv-x="540" 
d="M388 516q0 54 -39.5 93.5t-93.5 39.5h-133v-283h173q38 0 65.5 27t27.5 65v58zM49 653q0 29 20.5 49t48.5 20h162v-2q77 -9 129 -67q53 -59 53 -137v-58q0 -78 -63 -129q63 -51 63 -130v-186q0 -13 -14 -13h-47q-13 0 -13 13v186q0 38 -27.5 65.5t-65.5 27.5h-173v-279
q0 -13 -13 -13h-47q-13 0 -13 13v640z" />
    <glyph glyph-name="S" unicode="S" horiz-adv-x="539" 
d="M122 491q0 -38 27.5 -66t65.5 -28h80q71 0 118 -48q48 -48 48 -118v-24q0 -86 -60 -146q-61 -61 -146 -61t-146 61q-60 60 -60 145q0 13 13 13h47q13 0 13 -12q0 -55 39 -94.5t94 -39.5t94 39.5t39 94.5v24q0 38 -27.5 65.5t-65.5 27.5h-80q-68 0 -117 49t-49 118v24
q0 87 60 147t146 60t146 -60q60 -62 60 -147q0 -14 -13 -14h-47q-13 0 -13 14q0 55 -39 94t-94 39t-94 -39t-39 -94v-24z" />
    <glyph glyph-name="T" unicode="T" horiz-adv-x="588" 
d="M527 722q13 0 13 -14v-46q0 -14 -13 -14h-196v-634q0 -14 -13 -14h-47q-13 0 -13 14v634h-196q-13 0 -13 14v46q0 14 13 14h465z" />
    <glyph glyph-name="U" unicode="U" horiz-adv-x="539" 
d="M255 73q55 0 94 39.5t39 94.5v501q0 14 13 14h47q13 0 13 -14v-501q0 -86 -60 -146q-61 -61 -146 -61t-146 61q-60 60 -60 146v501q0 14 13 14h47q13 0 13 -14v-501q0 -55 39 -94.5t94 -39.5z" />
    <glyph glyph-name="V" unicode="V" horiz-adv-x="632" 
d="M569 722q14 0 14 -13q0 -3 -1 -5l-231 -679q-9 -25 -35 -25t-35 25l-230 679q0 1 -1 2v2q0 14 13 14h50q9 0 12 -9l191 -562l190 562q3 9 13 9h50z" />
    <glyph glyph-name="W" unicode="W" horiz-adv-x="822" 
d="M553 73q48 0 83 35t35 84v516q0 14 14 14h46q14 0 14 -14v-516q0 -78 -57 -135t-135 -57q-105 0 -156 54q-51 -54 -156 -54q-79 0 -136 57q-56 56 -56 135v516q0 14 13 14h47q13 0 13 -14v-516q0 -49 35.5 -84t83.5 -35q119 0 119 80v555q0 14 14 14h46q14 0 14 -14v-555
q0 -80 119 -80z" />
    <glyph glyph-name="X" unicode="X" horiz-adv-x="615" 
d="M551 722q5 0 9.5 -4t4.5 -10q0 -1 -2 -7l-213 -340l212 -340q1 -2 1 -7q0 -14 -13 -14h-54q-8 0 -12 6l-177 286l-179 -286q-4 -6 -12 -6h-51q-13 0 -13 14q0 5 1 7l211 339l-212 341q-1 2 -1 7q0 14 13 14h54q7 0 11 -7l179 -286l177 286q4 7 12 7h54z" />
    <glyph glyph-name="Y" unicode="Y" horiz-adv-x="539" 
d="M255 333q55 0 94 39.5t39 93.5v242q0 14 13 14h48q12 0 12 -14v-501q0 -86 -60 -146q-61 -61 -146 -61q-68 0 -119 37.5t-73 94.5l-8 21q-1 2 -1 6q0 8 8 11l43 18q3 1 7 1q8 0 11 -9l8 -22q14 -36 47 -60t77 -24q55 0 94 39t39 94v101q-57 -48 -133 -48h-40
q-67 0 -117 48q-49 49 -49 118v282q0 14 13 14h47q13 0 13 -14v-282q0 -38 27.5 -65.5t65.5 -27.5h40z" />
    <glyph glyph-name="Z" unicode="Z" horiz-adv-x="557" 
d="M457 722q15 0 25.5 -10.5t10.5 -26.5q0 -8 -5 -18l-335 -594h326q14 0 14 -13v-47q0 -13 -14 -13h-388q-15 0 -26 10.5t-11 26.5q0 8 5 18l335 593h-326q-14 0 -14 14v46q0 14 14 14h389z" />
    <glyph glyph-name="bracketleft" unicode="[" horiz-adv-x="328" 
d="M49 652q0 28 20.5 49t49.5 21h118q13 0 13 -13v-47q0 -13 -13 -13h-115v-576h115q13 0 13 -13v-47q0 -13 -13 -13h-118q-29 0 -49.5 21t-20.5 49v582z" />
    <glyph glyph-name="backslash" unicode="\" horiz-adv-x="465" 
d="M58 694q0 8 8 11l45 16q1 1 4 1q9 0 13 -9l255 -678q1 -2 1 -7q0 -7 -8 -11l-44 -16q-2 -1 -5 -1q-9 0 -13 8l-255 680q-1 2 -1 6z" />
    <glyph glyph-name="bracketright" unicode="]" horiz-adv-x="328" 
d="M250 70q0 -29 -20.5 -49.5t-48.5 -20.5h-119q-13 0 -13 13v47q0 13 13 13h115v576h-115q-13 0 -13 13v47q0 13 13 13h119q28 0 48.5 -20.5t20.5 -49.5v-582z" />
    <glyph glyph-name="asciicircum" unicode="^" horiz-adv-x="555" 
d="M423 369q-7 0 -11 6l-149 240l-149 -240q-4 -6 -10 -6q-5 0 -8 2l-39 25q-6 3 -7 8v3q0 3 2 7l180 290q10 17 31 17t31 -17l181 -290q2 -2 2 -7q0 -6 -7 -11l-39 -25q-3 -2 -8 -2z" />
    <glyph glyph-name="underscore" unicode="_" horiz-adv-x="584" 
d="M507 -60q0 -13 -13 -13h-432q-13 0 -13 13v47q0 13 13 13h432q13 0 13 -13v-47z" />
    <glyph glyph-name="grave" unicode="`" horiz-adv-x="297" 
d="M164 546h-1q-8 2 -10 5l-96 120q-4 4 -4 9q0 4 6 9l37 30q3 3 8 3h1q4 0 9 -5l96 -120q4 -4 4 -9q0 -6 -6 -10l-36 -29q-5 -3 -8 -3z" />
    <glyph glyph-name="a" unicode="a" horiz-adv-x="548" 
d="M122 211q0 -56 41 -97t97 -41q57 0 97.5 40.5t40.5 97.5v75q0 57 -40.5 97.5t-97.5 40.5t-97.5 -41t-40.5 -97v-75zM471 13q0 -13 -13 -13h-47q-13 0 -13 13v39q-59 -52 -138 -52q-88 0 -150 62q-61 61 -61 149v75q0 89 61 150q62 62 150 62q83 0 146 -60q60 -58 65 -142
v-283z" />
    <glyph glyph-name="b" unicode="b" horiz-adv-x="549" 
d="M260 73q56 0 96.5 41t40.5 97v75q0 56 -40.5 97t-96.5 41t-97 -41t-41 -97v-75q0 -56 41 -97t97 -41zM260 497q87 0 149 -62t62 -149v-75q0 -87 -62 -149t-149 -62t-149 62t-62 149v498q0 14 13 14h47q13 0 13 -14v-263q60 51 138 51z" />
    <glyph glyph-name="c" unicode="c" horiz-adv-x="545" 
d="M452 125q-24 -54 -75 -89.5t-117 -35.5q-87 0 -149 62t-62 149v75q0 88 62 150t149 62q65 0 116.5 -36t75.5 -89l3 -9q0 -6 -9 -10l-43 -20q-2 -1 -7 -1q-8 0 -11 10q-15 35 -48.5 58t-76.5 23q-56 0 -97 -41t-41 -97v-75q0 -56 41 -97t97 -41q43 0 76.5 23t48.5 58h1
q5 8 10 8q4 0 7 -1l43 -19q9 -3 9 -10q0 -5 -2 -8z" />
    <glyph glyph-name="d" unicode="d" horiz-adv-x="549" 
d="M260 73q56 0 97 41t41 97v75q0 56 -41 97t-97 41t-96.5 -40.5t-40.5 -97.5v-75q0 -56 40.5 -97t96.5 -41zM458 723q14 0 14 -14v-498q0 -87 -62 -149t-150 -62q-87 0 -149 62t-62 149v75q0 87 62 149t149 62q78 0 138 -51v263q0 14 13 14h47z" />
    <glyph glyph-name="e" unicode="e" horiz-adv-x="548" 
d="M397 296q-3 53 -43 90.5t-94 37.5q-55 0 -94.5 -37.5t-42.5 -90.5h274zM122 211q0 -56 41 -97t97 -41q80 0 119 71q4 7 12 7q2 0 6 -2l42 -19q9 -4 9 -12q0 -2 -2 -6q-27 -49 -75.5 -80.5t-110.5 -31.5q-87 0 -149 62t-62 149v75q0 88 62 150t149 62t149 -62t62 -150v-27
q0 -15 -10.5 -26t-25.5 -11h-313v-11z" />
    <glyph glyph-name="f" unicode="f" horiz-adv-x="489" 
d="M304 649q-36 0 -62 -26t-26 -62v-57h186q14 0 14 -13v-47q0 -13 -14 -13h-186v-418q0 -13 -13 -13h-46q-13 0 -13 13v418h-82q-13 0 -13 13v47q0 13 13 13h82v57q0 67 46 114q47 47 114 47q53 0 96 -32l11 -8q6 -4 6 -10q0 -4 -3 -8l-29 -38q-5 -6 -10 -6q-2 0 -8 4
l-10 7q-24 18 -53 18z" />
    <glyph glyph-name="g" unicode="g" horiz-adv-x="549" 
d="M260 114q56 0 97 41t41 97v35q0 56 -41 97t-97 41t-97 -41t-41 -97v-35q0 -56 41 -97t97 -41zM260 -94q56 0 97 40.5t41 96.5v49q-60 -51 -138 -51q-87 0 -149 62t-62 149v35q0 88 62 150q61 61 149 61t149 -61q62 -62 62 -150v-246q-1 -85 -63 -147q-61 -61 -148 -61
q-88 0 -149 61l-16 17q-5 5 -5 9t5 9l32 33q3 4 10 4h1q5 0 8 -4l17 -16q40 -40 97 -40z" />
    <glyph glyph-name="h" unicode="h" horiz-adv-x="549" 
d="M260 424q-56 0 -96.5 -40.5t-40.5 -97.5v-273q0 -13 -14 -13h-47q-13 0 -13 13v696q0 14 13 14h47q14 0 14 -14v-263q59 52 137 52q87 0 149 -62q63 -62 63 -150v-273q0 -13 -14 -13h-47q-13 0 -13 13v273q0 57 -40.5 97.5t-97.5 40.5z" />
    <glyph glyph-name="i" unicode="i" horiz-adv-x="212" 
d="M120 519q13 0 13 -13v-493q0 -13 -13 -13h-47q-13 0 -13 13v493q0 13 13 13h47zM125 722q9 0 9 -9v-80q0 -9 -9 -9h-57q-9 0 -9 9v80q0 9 9 9h57z" />
    <glyph glyph-name="j" unicode="j" horiz-adv-x="256" 
d="M7 -94q40 0 68.5 28t28.5 68v504q0 13 13 13h47q14 0 14 -13v-504q0 -70 -50 -120q-49 -49 -121 -49h-23q-13 0 -13 13v47q0 13 13 13h23zM169 721q10 0 10 -9v-80q0 -9 -10 -9h-57q-9 0 -9 9v80q0 9 9 9h57z" />
    <glyph glyph-name="k" unicode="k" horiz-adv-x="514" 
d="M458 13q0 -13 -13 -13h-64q-6 0 -10 4l-213 237l-34 -28v-199q0 -14 -14 -14h-46q-14 0 -14 14v231l-1 2l1 1v461q0 14 14 14h46q14 0 14 -14v-401l241 195q3 3 9 3h1q5 0 8 -5l30 -36q4 -4 4 -8q0 -7 -6 -11l-196 -158l240 -266q3 -3 3 -9z" />
    <glyph glyph-name="l" unicode="l" horiz-adv-x="209" 
d="M132 13q0 -13 -13 -13h-47q-13 0 -13 13v696q0 14 13 14h47q13 0 13 -14v-696z" />
    <glyph glyph-name="m" unicode="m" horiz-adv-x="736" 
d="M220 424q-40 0 -69 -28.5t-29 -68.5v-314q0 -13 -14 -13h-46q-13 0 -13 13v314q0 70 50 120q49 51 121 51q89 0 134 -40q45 40 134 40q70 0 120 -51q51 -51 51 -120v-314q0 -13 -13 -13h-47q-14 0 -14 13v314q0 40 -28.5 68.5t-68.5 28.5q-64 0 -85 -21q-12 -12 -12 -37
v-353q0 -13 -14 -13h-46q-14 0 -14 13v353q0 25 -12 37q-22 21 -85 21z" />
    <glyph glyph-name="n" unicode="n" horiz-adv-x="549" 
d="M260 424q-56 0 -97 -41t-41 -97v-273q0 -13 -13 -13h-47q-13 0 -13 13v273q0 87 62 149q61 63 149 63t149 -63q62 -62 62 -149v-273q0 -13 -13 -13h-47q-13 0 -13 13v273q0 56 -41 97t-97 41z" />
    <glyph glyph-name="o" unicode="o" horiz-adv-x="548" 
d="M260 424q-56 0 -97 -40.5t-41 -97.5v-75q0 -56 41 -97t97 -41t96.5 41t40.5 97v75q0 57 -40.5 97.5t-96.5 40.5zM49 211v75q0 88 61 149q62 62 150 62q87 0 149 -62t62 -149v-75q0 -87 -62 -149t-149 -62q-88 0 -150 62q-61 61 -61 149z" />
    <glyph glyph-name="p" unicode="p" horiz-adv-x="549" 
d="M260 73q57 0 97.5 40.5t40.5 97.5v75q0 56 -41 97t-97 41t-97 -41t-41 -97v-75q0 -56 41 -97t97 -41zM260 497q88 0 149 -61q62 -62 62 -150v-75q0 -87 -62 -149t-149 -62q-79 0 -138 52v-207q0 -13 -13 -13h-47q-13 0 -13 13v450q3 84 65 143t146 59z" />
    <glyph glyph-name="q" unicode="q" horiz-adv-x="549" 
d="M122 211q0 -57 40.5 -97.5t97.5 -40.5q56 0 97 41t41 97v75q0 56 -41 97t-97 41t-97 -41t-41 -97v-75zM471 295v-450q0 -13 -13 -13h-47q-13 0 -13 13v207q-59 -52 -138 -52q-87 0 -149 62t-62 149v75q0 88 62 150q61 61 149 61q84 0 146 -59t65 -143z" />
    <glyph glyph-name="r" unicode="r" horiz-adv-x="449" 
d="M225 424q-42 0 -72 -30t-30 -72v-309q0 -13 -14 -13h-47q-13 0 -13 13v309q0 72 52 124t124 52q44 0 84 -22.5t61 -55.5l13 -19q3 -5 3 -8q0 -7 -7 -11l-39 -26q-4 -2 -7 -2h-2q-6 2 -9 6l-12 19q-12 17 -26 26q-25 19 -59 19z" />
    <glyph glyph-name="s" unicode="s" horiz-adv-x="495" 
d="M285 285q53 0 90.5 -37.5t37.5 -90.5q0 -25 -7 -46q-14 -47 -55 -79t-95 -32h-48q-54 1 -94.5 32.5t-54.5 78.5q-1 2 -1 9q0 8 9 11l44 14h5q9 0 13 -12q8 -26 29 -42.5t50 -17.5h48q35 0 59 24t24 60q0 23 -16 39t-38 16h-104q-53 0 -91 37.5t-38 90.5q0 24 7 45
q14 47 54 79t94 33h49q54 0 95 -32t55 -79l2 -2v-6q0 -8 -10 -11l-44 -13q-2 -1 -5 -1q-6 0 -13 11q-7 26 -30 43t-50 17h-48q-35 -1 -58.5 -24.5t-23.5 -59.5q0 -22 16 -38.5t39 -16.5h104z" />
    <glyph glyph-name="t" unicode="t" horiz-adv-x="507" 
d="M229 152q0 -32 23 -55.5t56 -23.5q39 0 65 35l13 19q4 6 10 6q5 0 8 -2l39 -26q6 -5 6 -11q0 -5 -2 -8l-13 -19q-45 -67 -126 -67q-64 0 -108 44t-44 108v272h-94q-13 0 -13 13v47q0 13 13 13h94v212q0 14 13 14h46q14 0 14 -14v-212h187q13 0 13 -13v-47q0 -13 -13 -13
h-187v-272z" />
    <glyph glyph-name="u" unicode="u" horiz-adv-x="549" 
d="M260 73q56 0 96.5 41t40.5 97v273q0 13 14 13h47q13 0 13 -13v-273q0 -87 -62 -149t-149 -62t-149 62t-62 149v273q0 13 13 13h47q13 0 13 -13v-273q0 -56 41 -97t97 -41z" />
    <glyph glyph-name="v" unicode="v" horiz-adv-x="571" 
d="M504 497q14 0 14 -13q0 -1 -2 -5l-199 -458q-11 -21 -33 -21q-24 0 -34 21l-198 458q-2 4 -2 5q0 5 4.5 9t9.5 4h51q9 0 12 -8l157 -365l156 365q4 8 12 8h52z" />
    <glyph glyph-name="w" unicode="w" horiz-adv-x="736" 
d="M488 73q40 0 68.5 29t28.5 69v313q0 13 14 13h47q13 0 13 -13v-313q0 -69 -50 -121q-52 -50 -121 -50q-90 0 -134 39q-44 -39 -134 -39q-71 0 -121 50t-50 121v313q0 13 13 13h47q14 0 14 -13v-313q0 -40 28.5 -69t68.5 -29q61 0 85 22q12 12 12 36v353q0 13 14 13h46
q14 0 14 -13v-353q0 -24 12 -36q22 -22 85 -22z" />
    <glyph glyph-name="x" unicode="x" horiz-adv-x="573" 
d="M491 497q5 0 9 -4.5t4 -9.5q0 -3 -3 -7l-168 -217l184 -238q3 -5 3 -8q0 -13 -14 -13h-61q-7 0 -10 5l-150 193l-150 -193q-3 -5 -10 -5h-61q-14 0 -14 13q0 3 3 8l184 238l-167 217q-3 4 -3 8q0 13 13 13h62q5 0 10 -5l134 -172l132 172q5 5 11 5h62z" />
    <glyph glyph-name="y" unicode="y" horiz-adv-x="549" 
d="M260 114q56 0 97 41t41 97v233q0 14 13 14h47q13 0 13 -14v-444q-2 -88 -62 -148q-61 -61 -149 -61q-87 0 -149 62l-16 16q-5 5 -5 9q0 5 5 10l32 33q4 4 10 4t9 -4l17 -16q40 -40 97 -40t97.5 40.5t40.5 96.5v50q-59 -52 -138 -52q-87 0 -149 62t-62 149v233q0 14 13 14
h47q13 0 13 -14v-233q0 -56 41 -97t97 -41z" />
    <glyph glyph-name="z" unicode="z" horiz-adv-x="541" 
d="M101 0q-15 0 -26.5 10t-11.5 27q0 11 8 22l277 365h-286q-13 0 -13 13v47q0 14 13 14h359q24 0 33 -21q4 -8 4 -17q0 -12 -7 -22l-277 -365h285q14 0 14 -13v-47q0 -13 -14 -13h-358z" />
    <glyph glyph-name="braceleft" unicode="{" horiz-adv-x="346" 
d="M95 657q0 27 19 46t46 19h95q14 0 14 -13v-47q0 -13 -14 -13h-87v-246q0 -25 -14 -47q14 -22 14 -45v-238h87q14 0 14 -13v-47q0 -13 -14 -13h-95q-27 0 -46 19t-19 46v246q0 9 -10 9h-23q-13 0 -13 13v47q0 14 13 14h23q10 0 10 9v254z" />
    <glyph glyph-name="bar" unicode="|" horiz-adv-x="210" 
d="M132 13q0 -5 -4 -9t-9 -4h-47q-13 0 -13 13v666q0 13 13 13h47q13 0 13 -13v-666z" />
    <glyph glyph-name="braceright" unicode="}" horiz-adv-x="346" 
d="M223 65q0 -26 -19.5 -45.5t-46.5 -19.5h-95q-13 0 -13 13v47q0 13 13 13h87v238q0 23 14 45q-14 22 -14 47v246h-87q-13 0 -13 13v47q0 13 13 13h95q26 0 46 -19.5t20 -45.5v-254q0 -9 9 -9h23q14 0 14 -14v-47q0 -13 -14 -13h-23q-9 0 -9 -9v-246z" />
    <glyph glyph-name="asciitilde" unicode="~" horiz-adv-x="516" 
d="M110 282h-1l-47 3q-13 0 -13 13v1l2 24q3 42 30 66.5t71 29.5q2 0 5 0.5t5 0.5q44 0 100 -34q42 -24 63 -24h3q35 3 35 28l2 23q0 13 12 13h2l47 -3q12 0 12 -13v-1l-1 -23q-2 -42 -30 -67t-72 -30q-1 0 -4 -0.5t-5 -0.5q-42 0 -100 35q-42 24 -63 24h-3q-33 -3 -35 -29
l-2 -23q-2 -13 -13 -13z" />
    <glyph glyph-name="copyright" unicode="&#xa9;" horiz-adv-x="661" 
d="M530 438q0 87 -63 150t-151 63t-151 -63t-63 -150v-171q0 -88 63 -151t151 -63t151 63t63 151v171zM316 705q110 0 189 -79q78 -78 78 -188v-171q0 -110 -78 -188q-79 -79 -189 -79t-189 79q-78 78 -78 188v171q0 110 78 188q79 79 189 79zM185 437q0 54 38.5 92t92.5 38
t92.5 -38.5t38.5 -91.5v-24q0 -13 -13 -13h-47q-13 0 -13 13v24q0 24 -17 40.5t-41 16.5t-40.5 -16.5t-16.5 -40.5v-172q0 -24 17 -40.5t40 -16.5q24 0 41 16.5t17 40.5v23q0 14 13 14h47q13 0 13 -14v-23q0 -53 -38.5 -92t-92.5 -39t-92.5 38.5t-38.5 92.5v172z" />
    <glyph glyph-name="registered" unicode="&#xae;" horiz-adv-x="661" 
d="M530 438q0 87 -63 150t-151 63t-151 -63t-63 -150v-171q0 -88 63 -151t151 -63t151 63t63 151v171zM316 705q110 0 189 -79q78 -78 78 -188v-171q0 -110 -78 -188q-79 -79 -189 -79t-189 79q-78 78 -78 188v171q0 110 78 188q79 79 189 79zM374 437q0 23 -17 40t-41 17
h-58v-124h80q14 0 25 10.5t11 24.5v32zM186 513q0 23 15.5 38.5t38.5 15.5h76q54 0 92.5 -38.5t38.5 -91.5v-32q0 -41 -28 -72q28 -31 28 -72v-114q0 -13 -13 -13h-47q-13 0 -13 13v114q0 14 -11 24.5t-25 10.5h-80v-149q0 -13 -12 -13h-48q-12 0 -12 13v366z" />
    <glyph glyph-name="CommaArabic" unicode="&#x60c;" horiz-adv-x="262" 
d="M52 30q0 2 2 6l58 140q4 9 12 9q3 0 5 -1l43 -18q9 -4 9 -11q0 -1 -2 -7l-57 -140q-3 -8 -13 -8q-3 0 -5 1l-43 18q-9 3 -9 11z" />
    <glyph glyph-name="SemicolonArabic" unicode="&#x61b;" horiz-adv-x="263" 
d="M52 314q0 3 2 7l58 140q5 8 13 8q2 0 4 -1l43 -17q9 -5 9 -11q0 -1 -2 -7l-57 -140q-4 -8 -13 -8q-3 0 -5 1l-43 18q-9 3 -9 10zM124 83q9 0 9 -10v-63q0 -10 -9 -10h-55q-9 0 -9 10v63q0 10 9 10h55z" />
    <glyph glyph-name="QuestionArabic" unicode="&#x61f;" horiz-adv-x="549" 
d="M275 394q46 0 74.5 -33.5t28.5 -83.5v-123q0 -13 -14 -13h-46q-13 0 -13 13v123q0 43 -30 43h-56q-70 0 -120 50t-50 120v21q0 87 62 149t149 62q88 0 150 -62t62 -149v-24q0 -13 -14 -13h-47q-13 0 -13 13v24q0 56 -41 96.5t-97 40.5t-96.5 -40t-40.5 -97v-21
q0 -40 28 -68t68 -28h56zM369 83q9 0 9 -10v-64q0 -9 -9 -9h-55q-8 0 -8 9v64q0 10 8 10h55z" />
    <glyph glyph-name="Tatweel" unicode="&#x640;" horiz-adv-x="193" 
d="M-5 73h204v-73h-204v73z" />
    <glyph glyph-name="Fathatan" unicode="&#x64b;" 
d="M160 821q9 0 9 -9v-21q0 -10 -9 -10h-151q-9 0 -9 10v21q0 9 9 9h151zM160 893q9 0 9 -9v-22q0 -8 -9 -8h-151q-9 0 -9 8v22q0 9 9 9h151z" />
    <glyph glyph-name="Dammatan" unicode="&#x64c;" 
d="M128 847q0 -11 8 -19t19 -8q10 0 18 8t8 19t-7.5 18.5t-18.5 7.5t-19 -8t-8 -18zM155 912q27 0 46.5 -19t19.5 -46q0 -25 -17.5 -43.5t-41.5 -21.5v-1h-119q-13 0 -17 12l-25 55q-1 2 -1 5q0 5 5 7l20 9q1 0 3 1q9 0 9 -6l20 -44h38q-5 15 -5 27q0 27 19 46t46 19z" />
    <glyph glyph-name="Kasratan" unicode="&#x64d;" 
d="M160 -156q9 0 9 -9v-21q0 -9 -9 -9h-151q-9 0 -9 9v21q0 9 9 9h151zM160 -83q9 0 9 -10v-21q0 -9 -9 -9h-151q-9 0 -9 9v21q0 10 9 10h151z" />
    <glyph glyph-name="Fatha" unicode="&#x64e;" 
d="M160 835q9 0 9 -9v-21q0 -9 -9 -9h-151q-9 0 -9 9v21q0 9 9 9h151z" />
    <glyph glyph-name="Damma" unicode="&#x64f;" 
d="M104 847q0 -11 8 -19t18 -8t18.5 8t8.5 19t-8 18.5t-19 7.5q-10 0 -18 -7.5t-8 -18.5zM130 912q27 0 46.5 -19t19.5 -46q0 -26 -17 -44t-42 -21v-1h-128q-9 0 -9 9v21q0 9 9 9h62q-6 12 -6 27q0 26 19.5 45.5t45.5 19.5z" />
    <glyph glyph-name="Kasra" unicode="&#x650;" 
d="M160 -83q9 0 9 -10v-21q0 -9 -9 -9h-151q-9 0 -9 9v21q0 10 9 10h151z" />
    <glyph glyph-name="Shadda" unicode="&#x651;" 
d="M150 821q10 0 17 7t7 16v59q0 9 9 9h21q8 0 8 -9v-59q0 -26 -18.5 -44.5t-43.5 -18.5t-44 17q-20 -17 -43 -17q-25 0 -44 18.5t-19 44.5v59q0 9 10 9h20q10 0 10 -9v-59q0 -10 6.5 -16.5t16.5 -6.5q9 0 16.5 6.5t7.5 16.5v59q0 9 9 9h20q10 0 10 -9v-59q0 -10 7 -16.5
t17 -6.5z" />
    <glyph glyph-name="Sukun" unicode="&#x652;" 
d="M65 873q-11 0 -18.5 -8t-7.5 -19t7.5 -18.5t18.5 -7.5t18.5 7.5t7.5 18.5t-7.5 19t-18.5 8zM65 781q-27 0 -46 19t-19 46t19 46.5t46 19.5t46 -19.5t19 -46.5t-19 -46t-46 -19z" />
    <glyph glyph-name="Madda" unicode="&#x653;" 
d="M29 781q-2 0 -6 2l-19 10q-4 3 -4 8q0 4 1 6l6 9q23 39 68 42h5q26 0 69 -13q37 -12 54 -12h2q21 0 33 15l7 8q3 4 7 4t6 -2l17 -13q4 -3 4 -7q0 -3 -3 -6l-6 -9q-24 -30 -64 -30q-21 0 -68 14q-40 12 -59 12h-2q-23 -2 -35 -24l-6 -9q-3 -5 -7 -5z" />
    <glyph glyph-name="HamzaAbove" unicode="&#x654;" 
d="M103 901q-12 0 -20.5 -8.5t-8.5 -20.5v-51h91q9 0 9 -9v-21q0 -10 -9 -10h-156q-9 0 -9 10v21q0 9 9 9h24v51q0 28 20.5 48.5t49.5 20.5q46 0 64 -42l4 -10v-4v-3q-2 -3 -5 -5l-20 -8l-1 -1h-2q-5 0 -9 6l-4 9q-8 18 -27 18z" />
    <glyph glyph-name="HamzaBelow" unicode="&#x655;" 
d="M103 -124q-12 0 -20.5 -8.5t-8.5 -20.5v-51h91q9 0 9 -9v-22q0 -9 -9 -9h-156q-9 0 -9 9v22q0 9 9 9h24v51q0 28 20.5 48.5t49.5 20.5q46 0 64 -42l4 -10v-5v-3q-1 -2 -5 -4l-20 -9h-3q-6 0 -9 5l-4 10q-8 18 -27 18z" />
    <glyph glyph-name="ZeroArabic" unicode="&#x660;" horiz-adv-x="539" 
d="M255 648q-55 0 -94 -38.5t-39 -93.5v-309q0 -55 39 -94.5t94 -39.5t94 39.5t39 94.5v309q0 54 -39.5 93t-93.5 39zM49 516q0 85 60 145q61 61 146 61t146 -61q60 -60 60 -145v-309q0 -86 -60 -146q-61 -61 -146 -61t-146 61q-60 60 -60 146v309z" />
    <glyph glyph-name="OneArabic" unicode="&#x661;" horiz-adv-x="391" 
d="M245 722q28 0 48 -20t20 -49v-640q0 -13 -13 -13h-47q-13 0 -13 13v635h-178q-13 0 -13 14v46q0 14 13 14h183z" />
    <glyph glyph-name="TwoArabic" unicode="&#x662;" horiz-adv-x="540" 
d="M164 272q-17 0 -29.5 -12t-12.5 -29v-158h307q13 0 13 -13v-47q0 -13 -13 -13h-311q-28 0 -48.5 20t-20.5 49v162q0 47 34 81t81 34h131q38 0 66 27t28 65v77q0 54 -40 93.5t-94 39.5q-55 0 -94 -39t-39 -94v-23q0 -13 -13 -13h-47q-13 0 -13 13v23q0 86 60 146
q61 61 146 61t146 -61q61 -60 61 -146v-77q0 -68 -49 -117t-118 -49h-131z" />
    <glyph glyph-name="ThreeArabic" unicode="&#x663;" horiz-adv-x="539" 
d="M255 648q-55 0 -93.5 -39t-38.5 -94v-23q0 -13 -14 -13h-47q-13 0 -13 13v23q0 87 60 147t146 60t146 -60t60 -147v-11q0 -81 -62 -130q62 -50 62 -130v-37q0 -86 -60 -146q-61 -61 -146 -61t-146 61q-60 60 -60 146v22q0 14 13 14h47q14 0 14 -14v-22q0 -55 38.5 -94.5
t93.5 -39.5t94 39.5t39 94.5v37q0 38 -27.5 65.5t-65.5 27.5h-97q-15 0 -25.5 11t-10.5 26t10.5 25.5t25.5 10.5h97q38 0 65.5 27.5t27.5 66.5v11q0 55 -39 94t-94 39z" />
    <glyph glyph-name="FourArabic" unicode="&#x664;" horiz-adv-x="631" 
d="M388 255v317l-230 -317h230zM423 722q18 0 28 -10t10 -26v-431h79q13 0 13 -13v-47q0 -13 -13 -13h-79v-169q0 -13 -12 -13h-48q-13 0 -13 13v169h-303q-15 0 -25.5 10.5t-10.5 26.5q0 11 7 21l340 467q10 15 27 15z" />
    <glyph glyph-name="FiveArabic" unicode="&#x665;" horiz-adv-x="539" 
d="M49 653q0 29 20.5 49t48.5 20h291q13 0 13 -14v-46q0 -14 -13 -14h-287v-186h173q70 0 118 -48t48 -118v-89q0 -86 -60 -146q-61 -61 -146 -61t-146 61q-60 60 -60 146v22q0 14 13 14h47q13 0 13 -14v-22q0 -55 39 -94.5t94 -39.5t94 39.5t39 94.5v89q0 38 -27.5 65.5
t-65.5 27.5h-210q-15 0 -25.5 11t-10.5 26v227z" />
    <glyph glyph-name="SixArabic" unicode="&#x666;" horiz-adv-x="539" 
d="M255 73q55 0 94 39.5t39 94.5v89q0 38 -27.5 65.5t-65.5 27.5h-40q-55 0 -94 -39t-39 -94v-49q0 -55 39 -94.5t94 -39.5zM255 648q-55 0 -94 -39t-39 -94v-101q57 48 133 48h40q70 0 118 -48t48 -118v-89q0 -86 -60 -146q-61 -61 -146 -61t-146 61q-60 60 -60 146v308
q0 86 60 146q61 61 146 61q82 0 141 -56q59 -55 65 -136q0 -15 -13 -15h-47q-11 0 -13 12q-5 50 -43 85.5t-90 35.5z" />
    <glyph glyph-name="SevenArabic" unicode="&#x667;" horiz-adv-x="544" 
d="M425 722q14 0 25.5 -10t11.5 -25q0 -9 -3 -16l-268 -663q-3 -8 -12 -8h-51q-13 0 -13 13q0 4 1 6l255 629h-309q-13 0 -13 14v46q0 14 13 14h363z" />
    <glyph glyph-name="EightArabic" unicode="&#x668;" horiz-adv-x="539" 
d="M123 485q0 -38 27 -65.5t65 -27.5h80q38 0 65.5 27.5t27.5 65.5v31q0 55 -39 93.5t-94 38.5t-93.5 -38.5t-38.5 -93.5v-31zM255 73q55 0 94 39.5t39 94.5v18q0 38 -27.5 65.5t-65.5 27.5h-80q-38 0 -65 -27.5t-27 -65.5v-18q0 -55 38.5 -94.5t93.5 -39.5zM461 485
q0 -81 -62 -130q62 -49 62 -130v-18q0 -86 -60 -146q-61 -61 -146 -61t-146 61q-60 60 -60 146v18q0 80 62 130q-62 49 -62 130v31q0 86 60 146t146 60t146 -60t60 -146v-31z" />
    <glyph glyph-name="NineArabic" unicode="&#x669;" horiz-adv-x="540" 
d="M123 426q0 -38 27 -65.5t65 -27.5h40q55 0 94 39t39 94v49q0 55 -39 94t-94 39t-93.5 -39t-38.5 -94v-89zM255 73q55 0 94 39.5t39 94.5v101q-56 -49 -133 -49h-40q-68 0 -117 49t-49 118v89q0 86 60 146q61 61 146 61t146 -61t61 -146v-308q0 -85 -61 -146t-146 -61
q-80 0 -141 56q-59 55 -65 136v1q0 5 4 9.5t9 4.5h47q12 0 14 -13q5 -50 42.5 -85.5t89.5 -35.5z" />
  </font>
</defs>
</svg>
